<?xml version="1.0" encoding="UTF-8"?>
<svg id="Capa_2" data-name="Capa 2" xmlns="http://www.w3.org/2000/svg" viewBox="0 0 239.64 272.73">
  <defs>
    <style>
      .cls-1 {
        fill: #0065ba;
      }
    </style>
  </defs>
  <g id="Home">
    <g>
      <path class="cls-1" d="M239.64,212.47v-46.41l-.3-.3-21.8-21.8L116.78,43.2,159.98,0h-46.41l-43.2,43.2,169.27,169.27Z"/>
      <path class="cls-1" d="M239.64,126.19v-30.28l-52.72-52.72L230.12,0h-28.11l-43.96,43.37,81.59,82.82Z"/>
      <polygon class="cls-1" points="10.11 43.2 53.3 0 71.86 0 28.67 43.2 183.25 197.76 185.35 199.86 192.3 206.81 194.64 209.15 239.64 254.15 239.64 272.73 183.01 216.1 10.11 43.2"/>
      <rect class="cls-1" x="63.83" y="126.19" width="20.35" height="20.35" transform="translate(222.75 180.47) rotate(135)"/>
      <rect class="cls-1" x="34.02" y="96.39" width="20.35" height="20.35" transform="translate(150.8 150.66) rotate(135)"/>
      <rect class="cls-1" x="4.21" y="66.58" width="20.35" height="20.35" transform="translate(78.84 120.86) rotate(135)"/>
    </g>
  </g>
</svg>