<?xml version="1.0" encoding="UTF-8"?>
<svg id="Capa_2" xmlns="http://www.w3.org/2000/svg" version="1.1" viewBox="0 0 239.64 272.73">
  <!-- Generator: Adobe Illustrator 29.8.1, SVG Export Plug-In . SVG Version: 2.1.1 Build 2)  -->
  <defs>
    <style>
      .st0 {
        fill: #0065ba;
      }
    </style>
  </defs>
  <g id="Home">
    <g>
      <path class="st0" d="M169.27,43.2L126.07,0h-46.41s43.2,43.2,43.2,43.2L22.1,143.96.3,165.76l-.3.3v46.41S169.27,43.2,169.27,43.2Z"/>
      <path class="st0" d="M0,126.19L81.59,43.37,37.63,0H9.52s43.2,43.19,43.2,43.19L0,95.91v30.28s0,0,0,0Z"/>
      <polygon class="st0" points="56.63 216.1 0 272.73 0 254.15 45 209.15 47.34 206.81 54.29 199.86 56.39 197.76 210.97 43.2 167.78 0 186.34 0 229.53 43.2 56.63 216.1"/>
      <rect class="st0" x="155.47" y="126.2" width="20.35" height="20.35" transform="translate(186.35 349.94) rotate(-135)"/>
      <rect class="st0" x="185.27" y="96.38" width="20.35" height="20.35" transform="translate(258.3 320.11) rotate(-135)"/>
      <rect class="st0" x="215.08" y="66.58" width="20.35" height="20.35" transform="translate(330.25 290.31) rotate(-135)"/>
    </g>
  </g>
</svg>