<?xml version="1.0" encoding="UTF-8"?>
<svg xmlns="http://www.w3.org/2000/svg" viewBox="0 0 231.39 70.17">
  <defs>
    <style>
      .cls-1 {
        isolation: isolate;
      }

      .cls-2 {
        fill: #020202;
      }

      .cls-3 {
        fill: #fff;
      }

      .cls-4 {
        fill: #99bbce;
        mix-blend-mode: multiply;
      }
    </style>
  </defs>
  <g class="cls-1">
    <g id="Capa_2" data-name="Capa 2">
      <g id="Home">
        <g>
          <polygon class="cls-4" points="231.39 70.17 6.98 70.17 0 63.18 224.41 0 231.39 6.98 231.39 70.17"/>
          <rect class="cls-2" width="224.41" height="63.18"/>
          <g>
            <path class="cls-3" d="M82.66,19.49v3.81c-1.86-1.55-3.78-2.33-5.77-2.33-2.19,0-4.03.79-5.53,2.36-1.51,1.56-2.26,3.48-2.26,5.74s.75,4.12,2.26,5.66c1.51,1.54,3.36,2.3,5.55,2.3,1.13,0,2.09-.18,2.88-.55.44-.18.9-.43,1.37-.75.47-.31.97-.69,1.5-1.13v3.88c-1.84,1.04-3.77,1.56-5.79,1.56-3.04,0-5.64-1.06-7.79-3.19-2.14-2.14-3.21-4.73-3.21-7.75,0-2.71.9-5.13,2.69-7.26,2.21-2.6,5.06-3.9,8.57-3.9,1.91,0,3.76.52,5.55,1.56Z"/>
            <path class="cls-3" d="M89.22,16.34v23.3h-3.1v-23.3h3.1Z"/>
            <path class="cls-3" d="M92.69,20.62c0-.54.2-1.01.59-1.41.4-.4.87-.59,1.42-.59s1.04.2,1.43.59c.4.39.59.86.59,1.42s-.2,1.04-.59,1.43c-.39.4-.86.59-1.42.59s-1.04-.2-1.43-.59-.59-.88-.59-1.45ZM96.26,26.21v13.44h-3.1v-13.44h3.1Z"/>
            <path class="cls-3" d="M112.43,33.66h-9.63c.08,1.1.44,1.98,1.08,2.63.63.64,1.45.97,2.44.97.77,0,1.41-.18,1.92-.55.5-.37,1.06-1.05,1.7-2.04l2.62,1.46c-.41.69-.83,1.28-1.28,1.77-.45.49-.93.9-1.45,1.21-.51.32-1.07.55-1.67.7s-1.25.22-1.95.22c-2,0-3.61-.64-4.83-1.93-1.21-1.3-1.82-3.02-1.82-5.16s.59-3.84,1.77-5.16c1.19-1.3,2.76-1.95,4.72-1.95s3.54.63,4.69,1.89c1.14,1.25,1.71,2.98,1.71,5.2v.73ZM109.24,31.12c-.43-1.66-1.48-2.48-3.13-2.48-.38,0-.73.06-1.06.17-.33.12-.63.28-.9.5-.27.22-.5.48-.7.78-.19.3-.34.65-.44,1.03h6.24Z"/>
            <path class="cls-3" d="M115.82,26.21h3.12v1.24c1.08-1.08,2.31-1.61,3.67-1.61,1.56,0,2.78.49,3.66,1.48.75.84,1.13,2.2,1.13,4.1v8.24h-3.12v-7.5c0-1.32-.18-2.24-.55-2.75-.36-.52-1.01-.77-1.96-.77-1.03,0-1.76.34-2.19,1.02-.42.67-.63,1.84-.63,3.52v6.48h-3.12v-13.44Z"/>
            <path class="cls-3" d="M134.51,29.1v10.54h-3.1v-10.54h-1.32v-2.9h1.32v-4.93h3.1v4.93h2.42v2.9h-2.42Z"/>
            <path class="cls-3" d="M151.52,33.66h-9.63c.08,1.1.44,1.98,1.08,2.63.63.64,1.45.97,2.44.97.77,0,1.41-.18,1.92-.55.5-.37,1.06-1.05,1.7-2.04l2.62,1.46c-.41.69-.83,1.28-1.28,1.77-.45.49-.93.9-1.45,1.21-.51.32-1.07.55-1.67.7s-1.25.22-1.95.22c-2,0-3.61-.64-4.83-1.93-1.21-1.3-1.82-3.02-1.82-5.16s.59-3.84,1.77-5.16c1.19-1.3,2.76-1.95,4.72-1.95s3.54.63,4.69,1.89c1.14,1.25,1.71,2.98,1.71,5.2v.73ZM148.34,31.12c-.43-1.66-1.48-2.48-3.13-2.48-.38,0-.73.06-1.06.17-.33.12-.63.28-.9.5-.27.22-.5.48-.7.78-.19.3-.34.65-.44,1.03h6.24Z"/>
            <path class="cls-3" d="M162.73,28.5l-2.57,1.37c-.4-.83-.91-1.24-1.5-1.24-.29,0-.53.09-.73.28-.2.19-.3.43-.3.72,0,.52.6,1.03,1.79,1.53,1.65.71,2.75,1.36,3.33,1.96.57.6.86,1.4.86,2.41,0,1.3-.48,2.38-1.43,3.26-.93.83-2.05,1.24-3.37,1.24-2.25,0-3.85-1.1-4.79-3.3l2.65-1.23c.37.64.65,1.05.84,1.23.38.35.83.52,1.35.52,1.05,0,1.57-.48,1.57-1.43,0-.55-.41-1.07-1.21-1.55-.31-.16-.62-.31-.94-.46-.31-.15-.63-.3-.95-.46-.9-.44-1.54-.88-1.9-1.32-.47-.56-.7-1.28-.7-2.17,0-1.17.4-2.13,1.2-2.9.82-.76,1.81-1.15,2.98-1.15,1.72,0,3,.89,3.83,2.66Z"/>
          </g>
        </g>
      </g>
    </g>
  </g>
</svg>