<?xml version="1.0" encoding="UTF-8"?>
<svg xmlns="http://www.w3.org/2000/svg" viewBox="0 0 231.39 70.17">
  <defs>
    <style>
      .cls-1 {
        isolation: isolate;
      }

      .cls-2 {
        fill: #020202;
      }

      .cls-3 {
        fill: #fff;
      }

      .cls-4 {
        fill: #99bbce;
        mix-blend-mode: multiply;
      }
    </style>
  </defs>
  <g class="cls-1">
    <g id="Capa_2" data-name="Capa 2">
      <g id="Home">
        <g>
          <polygon class="cls-4" points="231.39 70.17 6.98 70.17 0 63.18 224.41 0 231.39 6.98 231.39 70.17"/>
          <rect class="cls-2" width="224.41" height="63.18"/>
          <g>
            <path class="cls-3" d="M74.91,19.49v3.81c-1.86-1.55-3.78-2.33-5.77-2.33-2.19,0-4.03.79-5.53,2.36-1.51,1.56-2.26,3.48-2.26,5.74s.75,4.12,2.26,5.66c1.51,1.54,3.36,2.3,5.55,2.3,1.13,0,2.09-.18,2.88-.55.44-.18.9-.43,1.37-.75.47-.31.97-.69,1.5-1.13v3.88c-1.84,1.04-3.77,1.56-5.79,1.56-3.04,0-5.64-1.06-7.79-3.19-2.14-2.14-3.21-4.73-3.21-7.75,0-2.71.9-5.13,2.69-7.26,2.21-2.6,5.06-3.9,8.57-3.9,1.91,0,3.76.52,5.55,1.56Z"/>
            <path class="cls-3" d="M77.74,32.83c0-1.94.69-3.59,2.08-4.95s3.08-2.04,5.08-2.04,3.71.69,5.1,2.06c1.38,1.37,2.07,3.05,2.07,5.05s-.69,3.7-2.08,5.06c-1.4,1.35-3.11,2.03-5.15,2.03s-3.7-.69-5.06-2.07c-1.36-1.36-2.04-3.07-2.04-5.13ZM80.91,32.88c0,1.34.36,2.41,1.08,3.19.74.79,1.71,1.19,2.91,1.19s2.18-.39,2.91-1.17,1.09-1.83,1.09-3.13-.36-2.35-1.09-3.13c-.74-.79-1.71-1.19-2.91-1.19s-2.15.4-2.88,1.19c-.74.79-1.1,1.81-1.1,3.06Z"/>
            <path class="cls-3" d="M95.36,26.21h3.12v1.24c1.08-1.08,2.31-1.61,3.67-1.61,1.56,0,2.78.49,3.66,1.48.75.84,1.13,2.2,1.13,4.1v8.24h-3.12v-7.5c0-1.32-.18-2.24-.55-2.75-.36-.52-1.01-.77-1.96-.77-1.03,0-1.76.34-2.19,1.02-.42.67-.63,1.84-.63,3.52v6.48h-3.12v-13.44Z"/>
            <path class="cls-3" d="M114.05,29.1v10.54h-3.1v-10.54h-1.32v-2.9h1.32v-4.93h3.1v4.93h2.42v2.9h-2.42Z"/>
            <path class="cls-3" d="M128.73,26.21h3.12v13.44h-3.12v-1.41c-1.28,1.2-2.65,1.79-4.12,1.79-1.86,0-3.39-.67-4.61-2.01-1.21-1.37-1.81-3.08-1.81-5.13s.6-3.69,1.81-5.04c1.2-1.34,2.71-2.01,4.52-2.01,1.56,0,2.97.64,4.21,1.93v-1.56ZM121.36,32.88c0,1.29.35,2.34,1.04,3.15.71.82,1.6,1.23,2.68,1.23,1.15,0,2.08-.4,2.79-1.19.71-.82,1.06-1.86,1.06-3.12s-.35-2.3-1.06-3.12c-.71-.8-1.63-1.2-2.76-1.2-1.07,0-1.96.4-2.68,1.21-.71.82-1.06,1.83-1.06,3.04Z"/>
            <path class="cls-3" d="M146.22,26.79v4.12c-.71-.86-1.34-1.46-1.9-1.78-.55-.33-1.2-.5-1.95-.5-1.17,0-2.14.41-2.91,1.23-.77.82-1.16,1.84-1.16,3.08s.37,2.29,1.12,3.1c.75.81,1.71,1.21,2.88,1.21.75,0,1.4-.16,1.97-.48.55-.31,1.2-.92,1.95-1.82v4.1c-1.26.65-2.52.98-3.78.98-2.08,0-3.82-.67-5.21-2.01-1.4-1.35-2.1-3.03-2.1-5.04s.71-3.7,2.12-5.08c1.42-1.38,3.15-2.07,5.21-2.07,1.32,0,2.57.32,3.75.95Z"/>
            <path class="cls-3" d="M152.43,29.1v10.54h-3.1v-10.54h-1.32v-2.9h1.32v-4.93h3.1v4.93h2.42v2.9h-2.42Z"/>
            <path class="cls-3" d="M156.51,32.83c0-1.94.69-3.59,2.08-4.95s3.08-2.04,5.08-2.04,3.71.69,5.1,2.06c1.38,1.37,2.07,3.05,2.07,5.05s-.69,3.7-2.08,5.06c-1.4,1.35-3.11,2.03-5.15,2.03s-3.7-.69-5.06-2.07c-1.36-1.36-2.04-3.07-2.04-5.13ZM159.69,32.88c0,1.34.36,2.41,1.08,3.19.74.79,1.71,1.19,2.91,1.19s2.18-.39,2.91-1.17,1.09-1.83,1.09-3.13-.36-2.35-1.09-3.13c-.74-.79-1.71-1.19-2.91-1.19s-2.15.4-2.88,1.19c-.74.79-1.1,1.81-1.1,3.06Z"/>
          </g>
        </g>
      </g>
    </g>
  </g>
</svg>