<?xml version="1.0" encoding="UTF-8"?>
<svg id="Capa_2" data-name="Capa 2" xmlns="http://www.w3.org/2000/svg" viewBox="0 0 638.32 638.52">
  <defs>
    <style>
      .cls-1 {
        fill: #fc3188;
      }
    </style>
  </defs>
  <g id="Home">
    <g>
      <path class="cls-1" d="M7.42,3.71c0,2.05-1.66,3.71-3.71,3.71S0,5.76,0,3.71,1.66,0,3.71,0s3.71,1.66,3.71,3.71Z"/>
      <path class="cls-1" d="M32.92,3.71c0,2.05-1.66,3.71-3.71,3.71s-3.71-1.66-3.71-3.71,1.66-3.71,3.71-3.71,3.71,1.66,3.71,3.71Z"/>
      <circle class="cls-1" cx="54.71" cy="3.71" r="3.71"/>
      <circle class="cls-1" cx="80.21" cy="3.71" r="3.71"/>
      <circle class="cls-1" cx="105.71" cy="3.71" r="3.71"/>
      <path class="cls-1" d="M7.42,29.21c0,2.05-1.66,3.71-3.71,3.71s-3.71-1.66-3.71-3.71,1.66-3.71,3.71-3.71,3.71,1.66,3.71,3.71Z"/>
      <path class="cls-1" d="M32.92,29.21c0,2.05-1.66,3.71-3.71,3.71s-3.71-1.66-3.71-3.71,1.66-3.71,3.71-3.71,3.71,1.66,3.71,3.71Z"/>
      <circle class="cls-1" cx="54.71" cy="29.21" r="3.71"/>
      <circle class="cls-1" cx="80.21" cy="29.21" r="3.71"/>
      <circle class="cls-1" cx="105.71" cy="29.21" r="3.71"/>
      <path class="cls-1" d="M7.42,54.71c0,2.05-1.66,3.71-3.71,3.71s-3.71-1.66-3.71-3.71,1.66-3.71,3.71-3.71,3.71,1.66,3.71,3.71Z"/>
      <path class="cls-1" d="M32.92,54.71c0,2.05-1.66,3.71-3.71,3.71s-3.71-1.66-3.71-3.71,1.66-3.71,3.71-3.71,3.71,1.66,3.71,3.71Z"/>
      <circle class="cls-1" cx="54.71" cy="54.71" r="3.71"/>
      <circle class="cls-1" cx="80.21" cy="54.71" r="3.71"/>
      <circle class="cls-1" cx="105.71" cy="54.71" r="3.71"/>
      <path class="cls-1" d="M7.42,80.21c0,2.05-1.66,3.71-3.71,3.71s-3.71-1.66-3.71-3.71,1.66-3.71,3.71-3.71,3.71,1.66,3.71,3.71Z"/>
      <path class="cls-1" d="M32.92,80.21c0,2.05-1.66,3.71-3.71,3.71s-3.71-1.66-3.71-3.71,1.66-3.71,3.71-3.71,3.71,1.66,3.71,3.71Z"/>
      <circle class="cls-1" cx="54.71" cy="80.21" r="3.71"/>
      <circle class="cls-1" cx="80.21" cy="80.21" r="3.71"/>
      <circle class="cls-1" cx="105.71" cy="80.21" r="3.71"/>
      <path class="cls-1" d="M7.42,105.71c0,2.05-1.66,3.71-3.71,3.71s-3.71-1.66-3.71-3.71,1.66-3.71,3.71-3.71,3.71,1.66,3.71,3.71Z"/>
      <path class="cls-1" d="M32.92,105.71c0,2.05-1.66,3.71-3.71,3.71s-3.71-1.66-3.71-3.71,1.66-3.71,3.71-3.71,3.71,1.66,3.71,3.71Z"/>
      <path class="cls-1" d="M58.42,105.71c0,2.05-1.66,3.71-3.71,3.71s-3.71-1.66-3.71-3.71,1.66-3.71,3.71-3.71,3.71,1.66,3.71,3.71Z"/>
      <path class="cls-1" d="M83.92,105.71c0,2.05-1.66,3.71-3.71,3.71s-3.71-1.66-3.71-3.71,1.66-3.71,3.71-3.71,3.71,1.66,3.71,3.71Z"/>
      <path class="cls-1" d="M109.42,105.71c0,2.05-1.66,3.71-3.71,3.71s-3.71-1.66-3.71-3.71,1.66-3.71,3.71-3.71,3.71,1.66,3.71,3.71Z"/>
    </g>
    <g>
      <path class="cls-1" d="M536.33,532.81c0,2.05-1.66,3.71-3.71,3.71s-3.71-1.66-3.71-3.71,1.66-3.71,3.71-3.71,3.71,1.66,3.71,3.71Z"/>
      <circle class="cls-1" cx="558.12" cy="532.81" r="3.71"/>
      <path class="cls-1" d="M587.33,532.81c0,2.05-1.66,3.71-3.71,3.71s-3.71-1.66-3.71-3.71,1.66-3.71,3.71-3.71,3.71,1.66,3.71,3.71Z"/>
      <circle class="cls-1" cx="609.11" cy="532.81" r="3.71"/>
      <circle class="cls-1" cx="634.61" cy="532.81" r="3.71"/>
      <path class="cls-1" d="M536.33,558.31c0,2.05-1.66,3.71-3.71,3.71s-3.71-1.66-3.71-3.71,1.66-3.71,3.71-3.71,3.71,1.66,3.71,3.71Z"/>
      <path class="cls-1" d="M561.83,558.31c0,2.05-1.66,3.71-3.71,3.71s-3.71-1.66-3.71-3.71,1.66-3.71,3.71-3.71,3.71,1.66,3.71,3.71Z"/>
      <path class="cls-1" d="M587.33,558.31c0,2.05-1.66,3.71-3.71,3.71s-3.71-1.66-3.71-3.71,1.66-3.71,3.71-3.71,3.71,1.66,3.71,3.71Z"/>
      <path class="cls-1" d="M612.83,558.31c0,2.05-1.66,3.71-3.71,3.71s-3.71-1.66-3.71-3.71,1.66-3.71,3.71-3.71,3.71,1.66,3.71,3.71Z"/>
      <path class="cls-1" d="M638.32,558.31c0,2.05-1.66,3.71-3.71,3.71s-3.71-1.66-3.71-3.71,1.66-3.71,3.71-3.71,3.71,1.66,3.71,3.71Z"/>
      <path class="cls-1" d="M536.33,583.81c0,2.05-1.66,3.71-3.71,3.71s-3.71-1.66-3.71-3.71,1.66-3.71,3.71-3.71,3.71,1.66,3.71,3.71Z"/>
      <path class="cls-1" d="M561.83,583.81c0,2.05-1.66,3.71-3.71,3.71s-3.71-1.66-3.71-3.71,1.66-3.71,3.71-3.71,3.71,1.66,3.71,3.71Z"/>
      <path class="cls-1" d="M587.33,583.81c0,2.05-1.66,3.71-3.71,3.71s-3.71-1.66-3.71-3.71,1.66-3.71,3.71-3.71,3.71,1.66,3.71,3.71Z"/>
      <path class="cls-1" d="M612.83,583.81c0,2.05-1.66,3.71-3.71,3.71s-3.71-1.66-3.71-3.71,1.66-3.71,3.71-3.71,3.71,1.66,3.71,3.71Z"/>
      <path class="cls-1" d="M638.32,583.81c0,2.05-1.66,3.71-3.71,3.71s-3.71-1.66-3.71-3.71,1.66-3.71,3.71-3.71,3.71,1.66,3.71,3.71Z"/>
      <path class="cls-1" d="M536.33,609.3c0,2.05-1.66,3.71-3.71,3.71s-3.71-1.66-3.71-3.71,1.66-3.71,3.71-3.71,3.71,1.66,3.71,3.71Z"/>
      <path class="cls-1" d="M561.83,609.3c0,2.05-1.66,3.71-3.71,3.71s-3.71-1.66-3.71-3.71,1.66-3.71,3.71-3.71,3.71,1.66,3.71,3.71Z"/>
      <path class="cls-1" d="M587.33,609.3c0,2.05-1.66,3.71-3.71,3.71s-3.71-1.66-3.71-3.71,1.66-3.71,3.71-3.71,3.71,1.66,3.71,3.71Z"/>
      <path class="cls-1" d="M612.83,609.3c0,2.05-1.66,3.71-3.71,3.71s-3.71-1.66-3.71-3.71,1.66-3.71,3.71-3.71,3.71,1.66,3.71,3.71Z"/>
      <path class="cls-1" d="M638.32,609.3c0,2.05-1.66,3.71-3.71,3.71s-3.71-1.66-3.71-3.71,1.66-3.71,3.71-3.71,3.71,1.66,3.71,3.71Z"/>
      <path class="cls-1" d="M536.33,634.8c0,2.05-1.66,3.71-3.71,3.71s-3.71-1.66-3.71-3.71,1.66-3.71,3.71-3.71,3.71,1.66,3.71,3.71Z"/>
      <circle class="cls-1" cx="558.12" cy="634.8" r="3.71"/>
      <path class="cls-1" d="M587.33,634.8c0,2.05-1.66,3.71-3.71,3.71s-3.71-1.66-3.71-3.71,1.66-3.71,3.71-3.71,3.71,1.66,3.71,3.71Z"/>
      <circle class="cls-1" cx="609.11" cy="634.8" r="3.71"/>
      <circle class="cls-1" cx="634.61" cy="634.8" r="3.71"/>
    </g>
  </g>
</svg>