<?xml version="1.0" encoding="UTF-8"?>
<svg xmlns="http://www.w3.org/2000/svg" viewBox="0 0 231.39 70.17">
  <defs>
    <style>
      .cls-1 {
        isolation: isolate;
      }

      .cls-2 {
        fill: #020202;
      }

      .cls-3 {
        fill: #fff;
      }

      .cls-4 {
        fill: #99bbce;
        mix-blend-mode: multiply;
      }
    </style>
  </defs>
  <g class="cls-1">
    <g id="Capa_2" data-name="Capa 2">
      <g id="Home">
        <g>
          <polygon class="cls-4" points="231.39 70.17 6.98 70.17 0 63.18 224.41 0 231.39 6.98 231.39 70.17"/>
          <rect class="cls-2" width="224.41" height="63.18"/>
          <g>
            <path class="cls-3" d="M85.99,18.34v21.3h-3.21v-21.3h3.21Z"/>
            <path class="cls-3" d="M90.51,26.21h3.12v1.24c1.09-1.08,2.31-1.61,3.67-1.61,1.56,0,2.78.49,3.66,1.48.75.84,1.13,2.2,1.13,4.1v8.24h-3.12v-7.5c0-1.32-.18-2.24-.55-2.75-.36-.52-1.01-.77-1.96-.77-1.03,0-1.76.34-2.19,1.02-.42.67-.63,1.84-.63,3.52v6.48h-3.12v-13.44Z"/>
            <path class="cls-3" d="M105.54,20.62c0-.54.2-1.01.59-1.41.4-.4.87-.59,1.42-.59s1.04.2,1.44.59c.4.39.59.86.59,1.42s-.2,1.04-.59,1.43c-.39.4-.86.59-1.42.59s-1.04-.2-1.44-.59-.59-.88-.59-1.45ZM109.11,26.21v13.44h-3.1v-13.44h3.1Z"/>
            <path class="cls-3" d="M123.5,26.79v4.12c-.71-.86-1.34-1.46-1.9-1.78-.55-.33-1.2-.5-1.95-.5-1.17,0-2.14.41-2.91,1.23-.77.82-1.16,1.84-1.16,3.08s.37,2.29,1.12,3.1c.75.81,1.72,1.21,2.88,1.21.75,0,1.4-.16,1.97-.48.55-.31,1.2-.92,1.95-1.82v4.1c-1.26.65-2.52.98-3.78.98-2.08,0-3.82-.67-5.21-2.01-1.4-1.35-2.1-3.03-2.1-5.04s.71-3.7,2.12-5.08c1.42-1.38,3.15-2.07,5.21-2.07,1.32,0,2.58.32,3.75.95Z"/>
            <path class="cls-3" d="M126.04,20.62c0-.54.2-1.01.59-1.41.4-.4.87-.59,1.42-.59s1.04.2,1.44.59c.4.39.59.86.59,1.42s-.2,1.04-.59,1.43c-.39.4-.86.59-1.42.59s-1.04-.2-1.44-.59-.59-.88-.59-1.45ZM129.61,26.21v13.44h-3.1v-13.44h3.1Z"/>
            <path class="cls-3" d="M132.91,32.83c0-1.94.69-3.59,2.08-4.95,1.39-1.36,3.08-2.04,5.08-2.04s3.71.69,5.1,2.06c1.38,1.37,2.07,3.05,2.07,5.05s-.69,3.7-2.08,5.06c-1.4,1.35-3.11,2.03-5.15,2.03s-3.7-.69-5.06-2.07c-1.36-1.36-2.04-3.07-2.04-5.13ZM136.08,32.88c0,1.34.36,2.41,1.08,3.19.74.79,1.71,1.19,2.91,1.19s2.18-.39,2.91-1.17,1.09-1.83,1.09-3.13-.36-2.35-1.09-3.13c-.74-.79-1.71-1.19-2.91-1.19s-2.15.4-2.88,1.19c-.74.79-1.1,1.81-1.1,3.06Z"/>
          </g>
        </g>
      </g>
    </g>
  </g>
</svg>