<?xml version="1.0" encoding="UTF-8"?>
<svg id="Capa_2" xmlns="http://www.w3.org/2000/svg" xmlns:xlink="http://www.w3.org/1999/xlink" viewBox="0 0 454.83 159.75">
  <defs>
    <style>
      .cls-1 {
        fill: #6dbed6;
      }

      .cls-1, .cls-2, .cls-3, .cls-4, .cls-5, .cls-6, .cls-7, .cls-8, .cls-9, .cls-10, .cls-11, .cls-12, .cls-13, .cls-14, .cls-15, .cls-16 {
        fill-rule: evenodd;
      }

      .cls-17 {
        fill: #eb5797;
      }

      .cls-18 {
        fill: #e9458f;
      }

      .cls-19 {
        fill: #ffdb84;
      }

      .cls-2 {
        fill: #f4a5af;
      }

      .cls-20 {
        fill: #00a254;
      }

      .cls-3 {
        fill: #ec5f71;
      }

      .cls-21 {
        fill: #40abcc;
      }

      .cls-22 {
        fill: #ffd25e;
      }

      .cls-23 {
        fill: #ee77a9;
      }

      .cls-24 {
        fill: #89cddd;
      }

      .cls-25 {
        fill: #f4adcc;
      }

      .cls-26 {
        fill: #009a3f;
      }

      .cls-27 {
        fill: #ec68a0;
      }

      .cls-28 {
        fill: #ffd97d;
      }

      .cls-29 {
        fill: #ffdd8b;
      }

      .cls-30 {
        fill: #ffe3a6;
      }

      .cls-31 {
        fill: #f4abb6;
      }

      .cls-32 {
        fill: #ec609c;
      }

      .cls-33 {
        fill: #009d47;
      }

      .cls-4 {
        fill: #f39ea9;
      }

      .cls-34 {
        fill: #f1919c;
      }

      .cls-35 {
        fill: #ffd775;
      }

      .cls-36 {
        fill: #ffd56e;
      }

      .cls-37 {
        fill: #f3a1c4;
      }

      .cls-38 {
        fill: #0086b5;
      }

      .cls-39 {
        fill: #009ec4;
      }

      .cls-40 {
        fill: #00a763;
      }

      .cls-41 {
        fill: #f3a7c8;
      }

      .cls-42 {
        fill: #00a868;
      }

      .cls-43 {
        fill: #f6bad4;
      }

      .cls-44 {
        fill: #fec930;
      }

      .cls-45 {
        fill: #1ba2c7;
      }

      .cls-5 {
        fill: #58b4d1;
      }

      .cls-46 {
        fill: #e73556;
      }

      .cls-47 {
        fill: #25ac73;
      }

      .cls-6 {
        fill: #ed6e7c;
      }

      .cls-48 {
        fill: #008ebb;
      }

      .cls-7 {
        fill: #f0838f;
      }

      .cls-8 {
        fill: #ec6777;
      }

      .cls-49 {
        fill: #f08cb7;
      }

      .cls-9 {
        fill: #4db0ce;
      }

      .cls-50 {
        fill: #ef7eae;
      }

      .cls-51 {
        fill: #ffde92;
      }

      .cls-52 {
        clip-path: url(#clippath-1);
      }

      .cls-53 {
        clip-path: url(#clippath-3);
      }

      .cls-54 {
        clip-path: url(#clippath-4);
      }

      .cls-55 {
        clip-path: url(#clippath-2);
      }

      .cls-56 {
        fill: #30a7c9;
      }

      .cls-57 {
        fill: #f193bb;
      }

      .cls-58 {
        fill: #009c43;
      }

      .cls-59 {
        fill: #ed6fa5;
      }

      .cls-60 {
        fill: #008ab8;
      }

      .cls-10, .cls-61 {
        fill: #0085cc;
      }

      .cls-62 {
        fill: #ffd366;
      }

      .cls-63 {
        fill: #e83187;
      }

      .cls-64 {
        fill: #80c8db;
      }

      .cls-65 {
        fill: #e94760;
      }

      .cls-66 {
        fill: #ea4e93;
      }

      .cls-67 {
        clip-rule: evenodd;
        fill: none;
      }

      .cls-68 {
        fill: #91d2e0;
      }

      .cls-69 {
        fill: #ea4f65;
      }

      .cls-70 {
        fill: #e83e5b;
      }

      .cls-71 {
        fill: #f5b4d0;
      }

      .cls-72 {
        fill: #00a04f;
      }

      .cls-73 {
        fill: #f29abf;
      }

      .cls-74 {
        fill: #00a358;
      }

      .cls-11 {
        fill: #63b9d3;
      }

      .cls-75 {
        fill: #00a55d;
      }

      .cls-76 {
        fill: #009ac2;
      }

      .cls-77 {
        fill: #15aa6d;
      }

      .cls-78 {
        fill: #fecc44;
      }

      .cls-79 {
        fill: #fdc725;
      }

      .cls-80 {
        fill: #0096bf;
      }

      .cls-81 {
        fill: #fece4d;
      }

      .cls-82 {
        fill: #ffe2a0;
      }

      .cls-83 {
        fill: #ffd056;
      }

      .cls-12 {
        fill: #f298a2;
      }

      .cls-84 {
        fill: #ffe099;
      }

      .cls-85 {
        fill: #fecb3a;
      }

      .cls-86 {
        fill: #0092bd;
      }

      .cls-13 {
        fill: #ef7d89;
      }

      .cls-87 {
        clip-path: url(#clippath);
      }

      .cls-88 {
        fill: #e93b8b;
      }

      .cls-14 {
        fill: #f5b2bd;
      }

      .cls-89 {
        fill: #eb576b;
      }

      .cls-15 {
        fill: #77c3d8;
      }

      .cls-90 {
        fill: #ef86b2;
      }

      .cls-16 {
        fill: #f18a95;
      }

      .cls-91 {
        fill: #ee7582;
      }

      .cls-92 {
        fill: #009e4b;
      }
    </style>
    <clipPath id="clippath">
      <path class="cls-67" d="M74.81,92.53c.5-.12.49-.7.52-1.77.03-1.07.05-1.76.27-3.57.22-1.81,2.31-11.11,12.31-23.91,4.25-5.44,15.81-15.56,17.25-17.12,1.44-1.56,2.87-3.87,1.44-6.34-1.44-2.47-5-5.56-7.25-7.31s-5.91-3.78-9.22-1.69c-3.31,2.09-10.03,9.78-14.34,17.66-4.31,7.88-5.94,19.38-5.5,25.69.44,6.31,2.19,13.03,2.78,14.94.59,1.91,1.24,3.56,1.74,3.44Z"/>
    </clipPath>
    <clipPath id="clippath-1">
      <path class="cls-67" d="M71.39,100.79s-.02-.16-.13-.38c-.11-.21-11.97-20.11-5.9-48.95,3-14.25,19.12-35,19.12-35,0,0,4.22-4.62.62-7.88-4.26-3.86-8.61-6.07-10.81-7.31-2.65-1.49-6.69-2.35-10.41,1.34-3.56,3.54-11.84,14.53-14.78,25.78-2.94,11.25-2.12,26.31,1.75,37.31s9.75,21.38,12.88,25.94c3.12,4.56,6.75,8.5,7.11,8.8.36.3.39.3.39.3,0,0,.11.06.15.04Z"/>
    </clipPath>
    <clipPath id="clippath-2">
      <path class="cls-67" d="M76.17,112.11c-.01.2-.04.36-.74.3-.71-.06-13.1-1.6-20.94-5.04-7.84-3.44-17.69-9.22-23.38-16.03-5.69-6.81-9.88-14.25-11.69-19.12s-4.03-13.12-4-17.38c.03-4.25,3.09-6.94,5.09-8.56s6.25-4.03,10.06-3.5c3.81.53,7.59,2.78,9.19,8.25,1.59,5.47,1.22,9.06,4.09,20,2.88,10.94,7.19,17.94,13.06,25.44s13.84,12.38,15.72,13.5,2.8,1.59,3.11,1.7.43.23.42.44Z"/>
    </clipPath>
    <clipPath id="clippath-3">
      <path class="cls-67" d="M61.89,114.23c0,.13-.12.22-.39.23-.27.02-2.52.17-7-.36-4.48-.53-11.16-1.75-14.09-2.53-2.94-.78-6.8-2.05-8.42-2.67s-9.12-4.44-11.12-6.81-2.81-3.81-2.66-6.22c.16-2.41,1.84-4,3.59-3.69,1.75.31,4.03,1.75,5.19,3.28,1.16,1.53,3.03,4,4.94,5.84,1.91,1.84,6.81,5.31,9.75,6.78,2.94,1.47,6.56,2.59,8.03,3.12,1.47.53,4.42,1.42,6.58,1.84,2.16.42,3.72.73,4.44.84.72.11,1.17.2,1.17.33Z"/>
    </clipPath>
    <clipPath id="clippath-4">
      <path class="cls-67" d="M81.08,113.97c.25.28-.37.88-1.59,2.16-1.22,1.28-5.56,6.19-10.62,8.47-5.06,2.28-7.09,2.78-10.62,2.75-3.53-.03-9.06-.9-11.69-3.56-1.2-1.22-1.09-2.94-1.02-3.77.08-.83.58-3.69,2.83-4.16,2.25-.47,4.72.67,5.95,1.22,1.23.55,6.39,2.42,13.11,1.77,6.72-.66,12.16-4.41,12.45-4.61.3-.2.95-.55,1.2-.27Z"/>
    </clipPath>
  </defs>
  <g id="Primer_plano">
    <g>
      <g>
        <g class="cls-87">
          <g>
            <circle class="cls-46" cx="86.66" cy="78.02" r="49.76" transform="translate(-23.58 116) rotate(-61.01)"/>
            <circle class="cls-70" cx="86.66" cy="78.02" r="47" transform="translate(-29.82 72.62) rotate(-39.35)"/>
            <circle class="cls-65" cx="86.66" cy="78.02" r="44.23" transform="translate(-23.93 114.99) rotate(-60.48)"/>
            <circle class="cls-69" cx="86.66" cy="78.02" r="41.47" transform="translate(-29.55 68.41) rotate(-37.27)"/>
            <circle class="cls-89" cx="86.66" cy="78.02" r="38.7" transform="translate(-2.35 153.34) rotate(-82.24)"/>
            <path class="cls-3" d="M50.72,78.02c0-19.85,16.09-35.94,35.94-35.94s35.94,16.09,35.94,35.94-16.09,35.94-35.94,35.94-35.94-16.09-35.94-35.94Z"/>
            <path class="cls-8" d="M53.48,78.02c0-18.32,14.85-33.17,33.17-33.17s33.17,14.85,33.17,33.17-14.85,33.17-33.17,33.17-33.17-14.85-33.17-33.17Z"/>
            <path class="cls-6" d="M56.25,78.02c0-16.79,13.61-30.41,30.41-30.41s30.41,13.61,30.41,30.41-13.61,30.41-30.41,30.41-30.41-13.61-30.41-30.41Z"/>
            <circle class="cls-91" cx="86.66" cy="78.02" r="27.65"/>
            <path class="cls-13" d="M61.78,78.02c0-13.74,11.14-24.88,24.88-24.88s24.88,11.14,24.88,24.88-11.14,24.88-24.88,24.88-24.88-11.14-24.88-24.88Z"/>
            <path class="cls-7" d="M64.54,78.02c0-12.21,9.9-22.12,22.12-22.12s22.12,9.9,22.12,22.12-9.9,22.12-22.12,22.12-22.12-9.9-22.12-22.12Z"/>
            <path class="cls-16" d="M67.31,78.02c0-10.69,8.66-19.35,19.35-19.35s19.35,8.66,19.35,19.35-8.66,19.35-19.35,19.35-19.35-8.66-19.35-19.35Z"/>
            <circle class="cls-34" cx="86.66" cy="78.02" r="16.59"/>
            <path class="cls-12" d="M72.84,78.02c0-7.63,6.19-13.82,13.82-13.82s13.82,6.19,13.82,13.82-6.19,13.82-13.82,13.82-13.82-6.19-13.82-13.82Z"/>
            <path class="cls-4" d="M75.6,78.02c0-6.11,4.95-11.06,11.06-11.06s11.06,4.95,11.06,11.06-4.95,11.06-11.06,11.06-11.06-4.95-11.06-11.06Z"/>
            <path class="cls-2" d="M78.36,78.02c0-4.58,3.71-8.29,8.29-8.29s8.29,3.71,8.29,8.29-3.71,8.29-8.29,8.29-8.29-3.71-8.29-8.29Z"/>
            <circle class="cls-31" cx="86.66" cy="78.02" r="5.53"/>
            <path class="cls-14" d="M83.89,78.02c0-1.53,1.24-2.76,2.77-2.76s2.76,1.24,2.76,2.76-1.24,2.77-2.76,2.77-2.77-1.24-2.77-2.77Z"/>
          </g>
        </g>
        <g class="cls-52">
          <g>
            <rect class="cls-63" x="47.34" width="39.22" height="5.3"/>
            <rect class="cls-88" x="47.34" y="5.3" width="39.22" height="5.31"/>
            <rect class="cls-18" x="47.34" y="10.61" width="39.22" height="5.3"/>
            <rect class="cls-66" x="47.34" y="15.92" width="39.22" height="5.3"/>
            <rect class="cls-17" x="47.34" y="21.22" width="39.22" height="5.31"/>
            <rect class="cls-32" x="47.34" y="26.53" width="39.22" height="5.3"/>
            <rect class="cls-27" x="47.34" y="31.83" width="39.22" height="5.31"/>
            <rect class="cls-59" x="47.34" y="37.13" width="39.22" height="5.31"/>
            <rect class="cls-23" x="47.34" y="42.44" width="39.22" height="5.31"/>
            <rect class="cls-50" x="47.34" y="47.75" width="39.22" height="5.3"/>
            <rect class="cls-90" x="47.34" y="53.05" width="39.22" height="5.31"/>
            <rect class="cls-49" x="47.34" y="58.36" width="39.22" height="5.31"/>
            <rect class="cls-57" x="47.34" y="63.66" width="39.22" height="5.3"/>
            <rect class="cls-73" x="47.34" y="68.97" width="39.22" height="5.31"/>
            <rect class="cls-37" x="47.34" y="74.27" width="39.22" height="5.31"/>
            <rect class="cls-41" x="47.34" y="79.58" width="39.22" height="5.3"/>
            <rect class="cls-25" x="47.34" y="84.88" width="39.22" height="5.31"/>
            <rect class="cls-71" x="47.34" y="90.19" width="39.22" height="5.31"/>
            <rect class="cls-43" x="47.34" y="95.49" width="39.22" height="5.3"/>
          </g>
        </g>
        <g class="cls-55">
          <g>
            <circle class="cls-38" cx="66.52" cy="93.22" r="66.52" transform="translate(-32.75 150.32) rotate(-84.4)"/>
            <circle class="cls-60" cx="66.52" cy="93.22" r="62.83" transform="translate(-46.43 74.34) rotate(-45)"/>
            <circle class="cls-48" cx="66.52" cy="93.22" r="59.13" transform="translate(-34.15 147.81) rotate(-82.96)"/>
            <circle class="cls-86" cx="66.52" cy="93.22" r="55.44" transform="translate(-47.94 89.56) rotate(-52.65)"/>
            <circle class="cls-80" cx="66.52" cy="93.22" r="51.74" transform="translate(-47.94 89.57) rotate(-52.66)"/>
            <circle class="cls-76" cx="66.52" cy="93.22" r="48.04" transform="translate(-30.98 33.15) rotate(-22.85)"/>
            <circle class="cls-39" cx="66.52" cy="93.22" r="44.35" transform="translate(-30.97 33.14) rotate(-22.84)"/>
            <circle class="cls-45" cx="66.52" cy="93.22" r="40.65" transform="translate(-33.2 36.9) rotate(-25.03)"/>
            <circle class="cls-56" cx="66.52" cy="93.22" r="36.96"/>
            <circle class="cls-21" cx="66.52" cy="93.22" r="33.26"/>
            <path class="cls-9" d="M36.96,93.22c0-16.33,13.24-29.57,29.57-29.57s29.57,13.24,29.57,29.57-13.24,29.57-29.57,29.57-29.57-13.24-29.57-29.57Z"/>
            <path class="cls-5" d="M40.65,93.22c0-14.29,11.58-25.87,25.87-25.87s25.87,11.58,25.87,25.87-11.58,25.87-25.87,25.87-25.87-11.58-25.87-25.87Z"/>
            <path class="cls-11" d="M44.35,93.22c0-12.25,9.93-22.17,22.17-22.17s22.17,9.93,22.17,22.17-9.93,22.17-22.17,22.17-22.17-9.93-22.17-22.17Z"/>
            <path class="cls-1" d="M48.04,93.22c0-10.21,8.27-18.48,18.48-18.48s18.48,8.27,18.48,18.48-8.27,18.48-18.48,18.48-18.48-8.27-18.48-18.48Z"/>
            <path class="cls-15" d="M51.74,93.22c0-8.16,6.62-14.78,14.78-14.78s14.78,6.62,14.78,14.78-6.62,14.78-14.78,14.78-14.78-6.62-14.78-14.78Z"/>
            <circle class="cls-64" cx="66.52" cy="93.22" r="11.09"/>
            <circle class="cls-24" cx="66.52" cy="93.22" r="7.39"/>
            <circle class="cls-68" cx="66.52" cy="93.22" r="3.7"/>
          </g>
        </g>
        <g class="cls-53">
          <g>
            <rect class="cls-26" x="18.18" y="92.15" width="43.71" height="1.86"/>
            <rect class="cls-58" x="18.18" y="94.01" width="43.71" height="1.86"/>
            <rect class="cls-33" x="18.18" y="95.87" width="43.71" height="1.86"/>
            <rect class="cls-92" x="18.18" y="97.73" width="43.71" height="1.86"/>
            <rect class="cls-72" x="18.18" y="99.6" width="43.71" height="1.86"/>
            <rect class="cls-20" x="18.18" y="101.46" width="43.71" height="1.86"/>
            <rect class="cls-74" x="18.18" y="103.32" width="43.71" height="1.86"/>
            <rect class="cls-75" x="18.18" y="105.19" width="43.71" height="1.86"/>
            <rect class="cls-40" x="18.18" y="107.05" width="43.71" height="1.86"/>
            <rect class="cls-42" x="18.18" y="108.91" width="43.71" height="1.86"/>
            <rect class="cls-77" x="18.18" y="110.77" width="43.71" height="1.86"/>
            <rect class="cls-47" x="18.18" y="112.64" width="43.71" height="1.86"/>
          </g>
        </g>
        <g class="cls-54">
          <g>
            <rect class="cls-79" x="46" y="116.4" width="2.14" height="14.19" transform="translate(-28.46 15.05) rotate(-13.99)"/>
            <rect class="cls-44" x="48.07" y="115.88" width="2.14" height="14.19" transform="translate(-28.3 15.55) rotate(-14.01)"/>
            <rect class="cls-85" x="50.15" y="115.36" width="2.14" height="14.19" transform="translate(-28.1 16.02) rotate(-14)"/>
            <rect class="cls-78" x="52.23" y="114.85" width="2.14" height="14.19" transform="translate(-27.93 16.53) rotate(-14.01)"/>
            <rect class="cls-81" x="54.3" y="114.33" width="2.14" height="14.19" transform="translate(-27.72 16.99) rotate(-13.99)"/>
            <rect class="cls-83" x="56.38" y="113.81" width="2.14" height="14.19" transform="translate(-27.55 17.5) rotate(-14.01)"/>
            <rect class="cls-22" x="58.46" y="113.29" width="2.14" height="14.19" transform="translate(-27.35 17.97) rotate(-14)"/>
            <rect class="cls-62" x="60.53" y="112.78" width="2.14" height="14.19" transform="translate(-27.18 18.47) rotate(-14.01)"/>
            <rect class="cls-36" x="62.61" y="112.26" width="2.14" height="14.19" transform="translate(-26.97 18.94) rotate(-13.99)"/>
            <rect class="cls-35" x="64.69" y="111.74" width="2.14" height="14.19" transform="translate(-26.81 19.45) rotate(-14.01)"/>
            <rect class="cls-28" x="66.76" y="111.22" width="2.14" height="14.19" transform="translate(-26.6 19.92) rotate(-14)"/>
            <rect class="cls-19" x="68.84" y="110.7" width="2.14" height="14.19" transform="translate(-26.44 20.43) rotate(-14.01)"/>
            <rect class="cls-29" x="70.92" y="110.19" width="2.14" height="14.19" transform="translate(-26.22 20.89) rotate(-13.99)"/>
            <rect class="cls-51" x="73" y="109.67" width="2.14" height="14.19" transform="translate(-26.06 21.4) rotate(-14.01)"/>
            <rect class="cls-84" x="75.07" y="109.15" width="2.14" height="14.19" transform="translate(-25.85 21.87) rotate(-14)"/>
            <rect class="cls-82" x="77.15" y="108.63" width="2.14" height="14.19" transform="translate(-25.68 22.37) rotate(-14.01)"/>
            <rect class="cls-30" x="79.23" y="108.12" width="2.14" height="14.19" transform="translate(-25.47 22.83) rotate(-13.99)"/>
          </g>
        </g>
      </g>
      <g>
        <path class="cls-10" d="M135.85,140.5h5.12l-2.57-6.56-2.56,6.56ZM139.81,130.98l6.28,15.59h-2.79l-1.45-3.87h-6.84l-1.45,3.87h-2.82l6.29-15.59h2.79Z"/>
        <path class="cls-10" d="M156.08,136.71c-.24-.05-.51-.08-.81-.08-1.06,0-1.83.32-2.37.94-.54.62-.83,1.54-.83,2.78v6.22h-2.47v-11.83h2.47v1.23c.35-.41.77-.74,1.25-.98.71-.35,1.55-.53,2.53-.53.14,0,.3,0,.47.03.17.02.36.04.56.08l.21.04v2.54s-.36-.2-.36-.2c-.2-.11-.42-.19-.65-.24Z"/>
        <path class="cls-10" d="M163.09,134.74h4.04v1.95h-4.04v5.89c0,.93.14,1.42.33,1.6.19.18.63.32,1.45.32h2.27v2.06h-2.27c-1.52,0-2.65-.27-3.3-.87-.65-.61-.94-1.68-.94-3.11v-5.89h-1.44v-1.95h1.44v-3.21h2.47v3.21Z"/>
        <path class="cls-10" d="M173.69,134.74v11.83h-2.47v-11.83h2.47ZM176.64,129.51l-3.94,4.31h-2.26l3.39-4.31h2.82Z"/>
        <path class="cls-10" d="M188.38,137.58l-.37-.19c-.54-.28-1.08-.49-1.62-.63-.54-.14-1.08-.21-1.63-.21-1.22,0-2.14.36-2.78,1.07-.65.7-.99,1.71-.99,3.05s.34,2.34.99,3.05c.65.7,1.56,1.07,2.78,1.07.55,0,1.09-.07,1.63-.21.54-.14,1.08-.35,1.62-.63l.37-.19v2.3l-.15.07c-.56.25-1.15.43-1.75.56-.6.12-1.25.19-1.93.19-1.86,0-3.36-.55-4.47-1.68-1.12-1.13-1.66-2.64-1.66-4.51s.55-3.42,1.68-4.53c1.13-1.11,2.67-1.66,4.58-1.66.62,0,1.23.06,1.82.18.59.12,1.17.3,1.73.54l.15.07v2.32Z"/>
        <path class="cls-10" d="M193.07,134.74h2.47v7.04c0,1.04.22,1.78.6,2.25.38.46.96.71,1.79.71,1.01,0,1.77-.3,2.33-.88.56-.58.85-1.39.85-2.44v-6.67h2.47v11.83h-2.47v-1.26c-.39.43-.82.77-1.29,1.02-.67.36-1.44.53-2.31.53-1.42,0-2.54-.42-3.32-1.3-.77-.87-1.13-2.12-1.13-3.71v-7.11Z"/>
        <rect class="cls-61" x="209.11" y="130.34" width="2.47" height="16.23"/>
        <path class="cls-10" d="M219.75,137.62c-.57.72-.86,1.73-.86,3.04s.3,2.32.86,3.04c.56.71,1.32,1.07,2.31,1.07s1.73-.36,2.29-1.08c.57-.72.86-1.73.86-3.04s-.3-2.31-.86-3.04c-.56-.72-1.32-1.08-2.29-1.08s-1.74.36-2.3,1.07ZM226.25,136.13c1.03,1.11,1.53,2.63,1.53,4.54s-.5,3.42-1.53,4.53c-1.03,1.12-2.45,1.66-4.21,1.66s-3.19-.55-4.22-1.66c-1.03-1.11-1.52-2.63-1.52-4.53s.5-3.43,1.52-4.54c1.03-1.11,2.44-1.66,4.22-1.66s3.18.54,4.21,1.66Z"/>
        <path class="cls-10" d="M240.64,137.49l-.36-.18c-.54-.26-1.1-.46-1.68-.59-.58-.13-1.18-.2-1.8-.2-.96,0-1.64.14-2.07.39-.41.24-.61.58-.61,1.06,0,.35.14.61.42.81.3.21.95.44,2.01.66l.67.14c1.41.29,2.45.7,3.08,1.26.65.57.97,1.37.97,2.35,0,1.14-.48,2.04-1.43,2.7-.94.65-2.2.96-3.77.96-.65,0-1.34-.06-2.04-.18-.7-.12-1.45-.3-2.23-.54l-.18-.05v-2.52l.36.18c.71.35,1.41.61,2.1.79.69.17,1.36.26,2.03.26.9,0,1.56-.15,2.01-.41.43-.26.63-.6.63-1.05s-.15-.75-.44-.96c-.31-.23-1.04-.48-2.27-.73l-.68-.15c-1.24-.25-2.17-.63-2.76-1.18-.6-.56-.89-1.32-.89-2.25,0-1.14.43-2.04,1.3-2.67.86-.62,2.05-.92,3.55-.92.74,0,1.44.05,2.09.15.66.1,1.27.26,1.82.46l.16.06v2.34Z"/>
        <path class="cls-10" d="M257.55,138.32h2.46c.96,0,1.67-.24,2.16-.67.48-.43.74-1.06.74-1.92s-.26-1.47-.74-1.91c-.49-.44-1.19-.67-2.16-.67h-2.46v5.17ZM260.01,130.98c1.82,0,3.23.39,4.21,1.21.98.82,1.46,2.02,1.46,3.55s-.48,2.75-1.46,3.57c-.98.81-2.4,1.2-4.21,1.2h-2.46v6.06h-2.67v-15.59h5.13Z"/>
        <path class="cls-10" d="M269.4,134.74h2.47v7.04c0,1.04.22,1.78.6,2.25.38.46.96.71,1.79.71,1,0,1.77-.3,2.33-.88.56-.58.85-1.39.85-2.44v-6.67h2.47v11.83h-2.47v-1.26c-.39.43-.82.77-1.29,1.02-.67.36-1.44.53-2.31.53-1.42,0-2.54-.42-3.32-1.3-.77-.87-1.13-2.12-1.13-3.71v-7.11Z"/>
        <path class="cls-10" d="M293.19,137.6c-.54-.71-1.29-1.07-2.25-1.07s-1.71.36-2.25,1.07c-.55.72-.84,1.73-.84,3.07s.29,2.35.84,3.07c.54.71,1.29,1.07,2.25,1.07s1.71-.36,2.25-1.07c.55-.72.84-1.73.84-3.07s-.29-2.35-.84-3.07ZM289.04,134.99c.67-.35,1.47-.52,2.37-.52,1.53,0,2.78.58,3.73,1.73.95,1.15,1.42,2.64,1.42,4.46s-.47,3.32-1.42,4.46c-.96,1.15-2.21,1.73-3.73,1.73-.91,0-1.7-.17-2.37-.52-.45-.23-.85-.55-1.2-.95v1.18h-2.47v-16.23h2.47v5.61c.34-.4.74-.71,1.2-.95Z"/>
        <rect class="cls-61" x="301.29" y="130.34" width="2.47" height="16.23"/>
        <path class="cls-10" d="M311.8,134.74v11.83h-2.47v-11.83h2.47ZM311.8,130.34v2.86h-2.47v-2.86h2.47Z"/>
        <path class="cls-10" d="M326.49,137.58l-.37-.19c-.54-.28-1.08-.49-1.62-.63-.54-.14-1.08-.21-1.63-.21-1.22,0-2.14.36-2.78,1.07-.65.7-.99,1.71-.99,3.05s.34,2.34.99,3.05c.65.7,1.56,1.07,2.78,1.07.55,0,1.09-.07,1.63-.21.54-.14,1.08-.35,1.62-.63l.37-.19v2.3l-.15.07c-.56.25-1.15.43-1.76.56-.6.12-1.25.19-1.93.19-1.86,0-3.36-.55-4.47-1.68-1.12-1.13-1.67-2.64-1.67-4.51s.55-3.42,1.68-4.53c1.13-1.11,2.67-1.66,4.58-1.66.62,0,1.23.06,1.82.18.59.12,1.17.3,1.73.54l.15.07v2.32Z"/>
        <path class="cls-10" d="M333.85,134.74v11.83h-2.47v-11.83h2.47ZM333.85,130.34v2.86h-2.47v-2.86h2.47Z"/>
        <path class="cls-10" d="M341.87,134.74h4.04v1.95h-4.04v5.89c0,.93.14,1.42.32,1.6.19.18.63.32,1.45.32h2.27v2.06h-2.27c-1.53,0-2.65-.27-3.3-.87-.66-.61-.94-1.68-.94-3.11v-5.89h-1.44v-1.95h1.44v-3.21h2.47v3.21Z"/>
        <path class="cls-10" d="M352.51,141.36c-.52.29-.79.78-.79,1.54,0,.59.2,1.05.6,1.38.4.34.96.52,1.71.52,1.02,0,1.83-.34,2.43-1.01.61-.67.92-1.58.92-2.75v-.16h-1.7c-1.58,0-2.62.17-3.17.48ZM357.38,138.93c-.02-.76-.29-1.32-.79-1.72-.53-.42-1.31-.65-2.35-.65-.66,0-1.31.08-1.94.23-.63.15-1.23.38-1.81.68l-.37.19v-2.31l.17-.06c.73-.27,1.44-.47,2.13-.6.69-.13,1.37-.2,2.02-.2,1.77,0,3.14.43,4.05,1.35.92.91,1.36,2.28,1.36,4.04v6.71h-2.47v-1.23c-.38.42-.82.76-1.31,1-.71.35-1.57.51-2.57.51-1.27,0-2.31-.34-3.09-1.04-.78-.7-1.17-1.64-1.17-2.8,0-1.34.48-2.38,1.46-3.08.96-.69,2.37-1.02,4.18-1.02h2.5Z"/>
        <path class="cls-10" d="M371.8,136.71c-.24-.05-.51-.08-.81-.08-1.06,0-1.83.32-2.37.94-.54.62-.83,1.54-.83,2.78v6.22h-2.47v-11.83h2.47v1.23c.35-.41.77-.74,1.25-.98.71-.35,1.55-.53,2.53-.53.14,0,.3,0,.48.03.17.02.36.04.56.08l.21.04v2.54s-.36-.2-.36-.2c-.2-.11-.42-.19-.65-.24Z"/>
        <path class="cls-10" d="M378.84,134.74v11.83h-2.47v-11.83h2.47ZM378.84,130.34v2.86h-2.47v-2.86h2.47Z"/>
        <path class="cls-10" d="M387,137.62c-.57.72-.86,1.73-.86,3.04s.3,2.32.86,3.04c.56.71,1.32,1.07,2.31,1.07s1.73-.36,2.29-1.08c.57-.72.86-1.73.86-3.04s-.3-2.31-.87-3.04c-.56-.72-1.32-1.08-2.29-1.08s-1.74.36-2.3,1.07ZM393.5,136.13c1.03,1.11,1.53,2.63,1.53,4.54s-.5,3.42-1.53,4.53c-1.03,1.12-2.45,1.66-4.21,1.66s-3.19-.55-4.22-1.66c-1.03-1.11-1.52-2.63-1.52-4.53s.5-3.43,1.52-4.54c1.03-1.11,2.45-1.66,4.22-1.66s3.18.54,4.21,1.66Z"/>
        <path class="cls-10" d="M407.89,137.49l-.36-.18c-.54-.26-1.1-.46-1.68-.59-.58-.13-1.18-.2-1.8-.2-.96,0-1.64.14-2.07.39-.41.24-.61.58-.61,1.06,0,.35.14.61.42.81.3.21.95.44,2.01.66l.67.14c1.41.29,2.45.7,3.08,1.26.65.57.96,1.37.96,2.35,0,1.14-.48,2.04-1.43,2.7-.94.65-2.2.96-3.77.96-.65,0-1.34-.06-2.04-.18-.7-.12-1.45-.3-2.23-.54l-.18-.05v-2.52l.36.18c.71.35,1.41.61,2.1.79.69.17,1.36.26,2.03.26.91,0,1.56-.15,2.01-.41.43-.26.63-.6.63-1.05s-.15-.75-.44-.96c-.31-.23-1.04-.48-2.27-.73l-.68-.15c-1.24-.25-2.17-.63-2.76-1.18-.6-.56-.89-1.32-.89-2.25,0-1.14.43-2.04,1.3-2.67.86-.62,2.05-.92,3.55-.92.74,0,1.44.05,2.09.15.66.1,1.27.26,1.82.46l.16.06v2.34Z"/>
      </g>
      <path class="cls-10" d="M410.45,115.16c-4.94-.2-9.52-1.71-13.55-4.47-5.65-3.86-9.62-9.01-10.87-15.94-.18-1.01-.3-4.39-.13-6.28.6-6.84,3.79-12.26,9.13-16.52,4.45-3.55,9.6-5.12,15.16-5.62.52-.18,1.09.08,1.61-.17,4.83,0,9.07,0,13.59-.01h7.01c.78,0,1.42.63,1.42,1.42v46.07c0,.78-.63,1.42-1.42,1.42h-7.01c-.78,0-1.42-.63-1.42-1.42v-38.54c-.13-.39-.45-.53-1.11-.51-3.63.11-7.26-.11-10.88.12-4.39.1-8.12,1.75-11.33,4.73-2,1.85-3.49,3.93-4.24,6.37-.91,2.96-.98,5.84-.14,9.1.71,2.76,2.33,5.06,4.55,7.12,5.12,4.74,11.14,5.26,17.58,3.91.87-.18,1.67-.68,2.51-1.04.99-.42,1.62-.05,1.64,1.05.03,2.15,0,4.3.02,6.45,0,.79-.31,1.17-1.09,1.4-3.07.92-6.68,1.53-11.02,1.37ZM446.4,53.36h7.01c.78,0,1.42.63,1.42,1.42v58.9c0,.78-.63,1.42-1.42,1.42h-7.01c-.78,0-1.42-.63-1.42-1.42v-58.9c0-.78.63-1.42,1.42-1.42ZM353.64,115.05h-2.51c-1.25,0-1.69-.47-2.09-1.46-2.51-6.25-17.59-43.02-18.65-45.67-.5-1.26-.14-1.76,1.2-1.77,2.29,0,4.57,0,6.86,0,.64,0,.98.04,1.3.87,2.42,6.33,11.09,28.89,13.08,34.08.07.22.21.5.34.51.14-.01.27-.29.34-.51,1.99-5.19,10.66-27.75,13.08-34.08.32-.83.66-.87,1.3-.87,2.29,0,4.57,0,6.86,0,1.34,0,1.71.51,1.2,1.77-1.06,2.66-16.14,39.43-18.65,45.67-.4.99-.84,1.46-2.09,1.46h-1.58ZM263.69,90.54c0-13.92,12.68-25.2,28.32-25.2s28.32,11.28,28.32,25.2-12.68,25.2-28.32,25.2-28.32-11.28-28.32-25.2ZM272.98,90.54c0-9.14,8.52-16.56,19.03-16.56s19.03,7.41,19.03,16.56-8.52,16.56-19.03,16.56-19.03-7.41-19.03-16.56ZM252.86,68.01v39.3c0,.35.05.72-.08,1.06-.56,4.67-2.96,8.02-7.09,10.27-1.78.97-3.69,1.19-5.62,1.5-2.44.25-3.98.29-4.64.33h-16.04c-.75,0-1.11-.68-1.11-1.22v-4.58c0-.5,0-1.32.59-1.32h15.62c3.66-.25,6.68-1.62,8.5-5.03.12-.22.2-.62.23-.93-.89,0-1.58.01-2.33,0-3.79-.07-7.53.18-11.32,0,0,0-2.34-.15-3.51-.33-2.76-.39-5.37-1.23-7.91-2.36-5.54-2.48-9.66-6.34-12.03-11.99-.54-1.28-.69-2.62-.84-3.97-.2-.42.06-.91-.19-1.33v-1.09c.25-.41,0-.9.18-1.32.4-4.99,2.92-8.75,6.66-11.9,2.88-2.42,6.06-4.26,9.66-5.33,2.95-.88,7.65-1.6,13.78-1.6,2.53,0,5.26,0,7.64,0h7.62c1.7,0,2.19.77,2.19,1.86ZM243.38,99.18c0,.63.02,1.11-.88,1.08-4.39-.14-8.79.31-13.16-.27-5.01-.66-9.33-2.71-12.35-6.91-2.63-3.67-2.45-9.03.18-12.65,3.14-4.31,7.63-6.18,12.67-6.69,4.03-.41,8.12-.57,12.2-.09.98.11,1.37.38,1.35,1.46v24.07ZM80.27,114.07v-6.04c0-10.26,0-50.7,0-52.77,0-1.9.46-1.91,2.3-1.91h6.2c.82,0,1.52.1,1.52,1.07v6.94c0,2.8.01,5.63.02,8.44,0,.26.14.41.41.42,5.13-3.69,10.77-5.21,17.1-4.44,3.97.48,7.5,1.92,10.66,4.22,3.56,2.59,6.09,6,7.58,10.23.98,2.79,1.25,5.61,1.25,8.51,0,8.07,0,16.14,0,24.2,0,1.82-.27,2.09-2.07,2.1h-5.78c-1.63,0-1.76-.12-1.76-1.72,0-8.7-.03-17.39,0-26.09.03-6.02-4.1-11.28-9.9-12.6-5.18-1.18-9.92-.4-13.87,3.62-2.32,2.36-3.47,5.09-3.48,8.32-.03,8.78-.01,17.57-.01,26.35,0,1.83-.27,2.11-2.05,2.11h-7.27c-.48,0-.84-.43-.84-.98ZM153.71,93.88c-.58-.68-.81-6.47-.28-7.12.43-.53,1.04-.43,1.62-.43h26.37s1.48,0,1.48,0c-1.03-6.97-6.11-10.9-12.83-11.86-4.37-.63-8.69-.46-12.8,1.36-2.54,1.13-4.66,2.86-6.61,4.86-3.06,3.14-3.93,6.96-3.69,11.14.2,3.52,1.51,6.55,3.94,9.18,2.2,2.37,4.7,4.2,7.74,5.19,3.45,1.12,7.03,1.02,10.58.55,3.34-.44,6.51-1.47,9.53-2.94,2.53-1.22,4.64-2.93,5.87-5.51.37-.77.83-.94,1.44-.45,1.82,1.46,3.43,3.03,5.21,4.48.67.55.41,1.05.03,1.67-2.81,4.52-7.02,7.24-11.83,9.16-5.55,2.22-11.35,2.9-17.25,2.36-6.85-.63-12.81-3.3-17.77-8.19-4.47-4.41-6.83-9.68-7.02-15.94-.04-.52-.09-1.05.04-1.57.13-4.83,1.58-9.19,4.57-13.02,1.38-1.76,2.95-3.32,4.65-4.74,3.93-3.28,8.45-5.28,13.51-6.05,3.05-.47,6.11-.51,9.2-.24,2.75.23,5.46.64,8.06,1.47,3.47,1.1,6.71,2.64,9.43,5.25,1.94,1.87,3.47,3.95,4.55,6.35,1.19,2.63,1.85,5.43,2.04,8.33l.11,1.33c.05,1.15,0,2.29-.02,3.44-.01.75-.09,2.04-1.31,2.04h-37.52c-.36,0-.72.06-1.06-.1Z"/>
    </g>
  </g>
</svg>