<?xml version="1.0" encoding="UTF-8"?>
<svg id="Capa_2" data-name="Capa 2" xmlns="http://www.w3.org/2000/svg" xmlns:xlink="http://www.w3.org/1999/xlink" viewBox="0 0 557.53 209.84">
  <defs>
    <style>
      .cls-1 {
        font-family: ArialRoundedMTBold, 'Arial Rounded MT Bold';
        font-size: 69.94px;
      }

      .cls-1, .cls-2 {
        fill: #0081c8;
      }

      .cls-3 {
        fill: #ff2d8b;
      }

      .cls-4 {
        fill: #00a225;
      }

      .cls-5 {
        fill: #0065ba;
      }

      .cls-6 {
        letter-spacing: .19em;
      }

      .cls-7 {
        letter-spacing: .18em;
      }

      .cls-8 {
        letter-spacing: .17em;
      }

      .cls-9 {
        fill: #ffcd00;
      }

      .cls-10 {
        fill: #ff325c;
      }
    </style>
    <symbol id="Logo_Symbol" data-name="Logo Symbol" viewBox="0 0 1631.95 614.22">
      <g>
        <g>
          <g>
            <path class="cls-10" d="M371.38,162.39s10.9,12.8-15.8,33.78c0,0-59.94,54.22-83.64,94.81,0,0-23.7,29.15-31.33,81.46,0,0-33.69-73.38-10.81-138.4,0,0,16.71-62.48,70.83-107.52,0,0,14.89-12.71,32.33,0,0,0,22.52,17.62,38.41,35.87Z"/>
            <path class="cls-3" d="M201.1,6.65s11.99-13.08,34.51-2.54c0,0,50.49,25.79,52.67,42.14,0,0,3.27,9.81-17.8,33.78,0,0-22.52,25.79-36.69,51.58,0,0-48.68,80.28-37.41,179.81,0,0,7.63,66.84,28.33,93.36,0,0-54.49-55.21-84.27-150.02,0,0-27.61-76.65,3.27-158.01,0,0,19.98-54.49,57.39-90.09Z"/>
            <path class="cls-5" d="M34.37,178.19s59.39-23.43,67.56,44.41c0,0,3.54,31.33,6.27,42.5,0,0,10.63,61.03,46.31,107.34,0,0,32.97,51.49,89.36,80.37,0,0-99.71-.82-170.55-72.2,0,0-42.77-43.59-57.21-90.45,0,0-14.98-37.87-15.8-61.84,0,0-5.99-31.6,34.05-50.13Z"/>
            <path class="cls-4" d="M39.82,380.98s-13.26-12.71-23.61-3.63c0,0-6.36,6.72-4.72,21.61,0,0,.18,13.62,34.51,32.33,0,0,52.85,31.42,139.13,31.97,0,0-87.73-11.99-128.77-64.11,0,0-9.26-11.99-16.53-18.16Z"/>
            <path class="cls-9" d="M121.37,489.59s-3.09,19.8,31.78,25.61c0,0,39.05,7.27,66.47-7.81,0,0,23.07-9.81,47.22-46.5,0,0-54.12,40.32-116.06,11.99,0,0-25.43-7.99-29.42,16.71Z"/>
          </g>
          <g>
            <path class="cls-2" d="M632.99,359.4c.9-20.31-20.41-37.35-38.51-42.34-80.49-22.17-129.98,77.28-53.16,113.47,34.98,16.48,80.39-.08,105.27-27.52,29.17,16.51,17.25,31.14-5.64,45.2-71.07,43.65-186.21,2.67-171.49-91.85,15.17-97.4,207.3-104.2,202.42,13.64-.31,7.53,5.68,14.51-9.25,17.84-14.42,3.22-113.44,2.66-129.26-.14-1.97-.35-6.12-.97-6.67-3.37l.1-24.94h106.18Z"/>
            <path class="cls-2" d="M1516.24,318.37c-35.01-8.19-87.68-1.3-100.18,38.57-15.15,48.34,33.89,86.48,79.09,74.27,5.18-1.4,9.71-8.21,13.87-5.47,4.96,3.27-3.48,22.44,1.46,29.1-26.04,22.46-76.31,8.6-101.21-11.4-63.74-51.23-28.2-151.05,50.29-158.84,9.75-.97,84.3-1.08,88.09,1.16,4.11,2.43,4.52,10.02,4.91,14.39,4.38,49.01-3.36,104.66-.28,154.4,1.29,16.66-36.04,14.24-36.04,2.58v-138.76Z"/>
            <path class="cls-2" d="M857.42,434.21h-63.95c-56.57,0-103.17-70.8-58.01-118.34,9.32-9.81,45.05-28.87,58.01-28.87h91.7l3.62,3.62v154.45c0,13.92-25.6,37.41-39.82,37.41h-82.05c-5.62-4.82-5.62-16.9,0-21.72h53.09c.91,0,15.78-3.37,17.69-4.02,9.62-3.31,20.66-11.24,19.71-22.52ZM857.42,406.45v-91.7c0-8.39-41.4-6.8-49.45-6.01-72.46,7.15-77.69,96.67.02,103.71,9.08.82,46.98,2.75,49.43-5.99Z"/>
            <path class="cls-2" d="M292.72,243.56v57.92c8.9-2.75,14.34-10.28,23.43-13.97,18.03-7.32,45.78-6.46,64.12.03,76.33,27,37.36,112.17,49.39,172.12-.95,5.4-29.57,4.92-32.12,1.25-6.92-33.37,10.83-108.31-14.35-132.86-19.58-19.1-58.28-17.27-75.63,3.96-23.7,28.99-7.45,91.23-12.77,127.2l-1.92,2.9c-3.2,2.24-28.08,2.86-31.53-2.57v-215.99h31.37Z"/>
            <path class="cls-2" d="M1023.43,282.89c142.63-12.31,148.22,182.23,11.37,182.2-128.67-.03-138.62-171.22-11.37-182.2ZM1023.39,311.82c-48.61,5.27-78.23,52.53-52.06,96.57,27.55,46.36,114.33,40.32,130.59-13.23,15.87-52.26-28.52-88.75-78.53-83.33Z"/>
            <path class="cls-2" d="M1177.68,282.66c6.56-1.92,24.26-2.37,28.38,4.42l47.75,116.35,5.42,6.6,50.71-123c3.12-7.26,28.85-6.3,31.53-2.6,2.52,9.45-4.1,19.98-7.51,29.04-18.16,48.23-41.74,94.68-59.64,143.07-3.01,9.54-25.51,9.19-30.53,2.75l-71.58-172.27c1.37-1.95,3.12-3.68,5.46-4.36Z"/>
            <path class="cls-2" d="M1602.37,239.21c10.89-3.28,26.79-.63,27.42,12.67-5.61,63.39,7.06,138.52-.08,200.47-2.2,19.04-16.38,13.47-31.55,12.16-2.43-1.71-4.27-13.37-4.65-17.07-6.22-60.7,4.61-131.3-.09-193.08.12-5.36,3.55-13.52,8.96-15.15Z"/>
          </g>
        </g>
        <text/>
        <text class="cls-1" transform="translate(429.66 562.75)"><tspan class="cls-7" x="0" y="0">A</tspan><tspan class="cls-6" x="62.89" y="0">r</tspan><tspan class="cls-7" x="106.97" y="0">ticulos Pu</tspan><tspan class="cls-8" x="565.87" y="0">b</tspan><tspan class="cls-7" x="621.25" y="0">licitarios</tspan></text>
      </g>
    </symbol>
  </defs>
  <g id="Home">
    <use width="1631.95" height="614.22" transform="scale(.34)" xlink:href="#Logo_Symbol"/>
  </g>
</svg>