<?xml version="1.0" encoding="UTF-8"?>
<svg xmlns="http://www.w3.org/2000/svg" viewBox="0 0 231.39 70.17">
  <defs>
    <style>
      .cls-1 {
        isolation: isolate;
      }

      .cls-2 {
        fill: #020202;
      }

      .cls-3 {
        fill: #fff;
      }

      .cls-4 {
        fill: #99bbce;
        mix-blend-mode: multiply;
      }
    </style>
  </defs>
  <g class="cls-1">
    <g id="Capa_2" data-name="Capa 2">
      <g id="Home">
        <g>
          <polygon class="cls-4" points="231.39 70.17 6.98 70.17 0 63.18 224.41 0 231.39 6.98 231.39 70.17"/>
          <rect class="cls-2" width="224.41" height="63.18"/>
          <g>
            <path class="cls-3" d="M58.88,39.64v-22.75l15.53,16.25v-14.8h3.21v22.6l-15.53-16.21v14.91h-3.21Z"/>
            <path class="cls-3" d="M81.7,32.83c0-1.94.69-3.59,2.08-4.95,1.39-1.36,3.08-2.04,5.08-2.04s3.71.69,5.1,2.06c1.38,1.37,2.07,3.05,2.07,5.05s-.69,3.7-2.08,5.06c-1.4,1.35-3.11,2.03-5.15,2.03s-3.7-.69-5.06-2.07c-1.36-1.36-2.04-3.07-2.04-5.13ZM84.87,32.88c0,1.34.36,2.41,1.08,3.19.74.79,1.71,1.19,2.91,1.19s2.18-.39,2.91-1.17,1.09-1.83,1.09-3.13-.36-2.35-1.09-3.13c-.74-.79-1.71-1.19-2.91-1.19s-2.15.4-2.88,1.19c-.74.79-1.1,1.81-1.1,3.06Z"/>
            <path class="cls-3" d="M107.12,28.5l-2.57,1.37c-.4-.83-.91-1.24-1.5-1.24-.29,0-.53.09-.73.28s-.3.43-.3.72c0,.52.6,1.03,1.79,1.53,1.65.71,2.75,1.36,3.32,1.96.57.6.86,1.4.86,2.41,0,1.3-.48,2.38-1.44,3.26-.93.83-2.05,1.24-3.37,1.24-2.25,0-3.85-1.1-4.79-3.3l2.65-1.23c.37.64.65,1.05.84,1.23.38.35.83.52,1.35.52,1.05,0,1.57-.48,1.57-1.43,0-.55-.4-1.07-1.21-1.55-.31-.16-.63-.31-.94-.46-.31-.15-.63-.3-.95-.46-.9-.44-1.54-.88-1.9-1.32-.47-.56-.7-1.28-.7-2.17,0-1.17.4-2.13,1.2-2.9.82-.76,1.81-1.15,2.98-1.15,1.72,0,3,.89,3.84,2.66Z"/>
            <path class="cls-3" d="M110.15,32.83c0-1.94.69-3.59,2.08-4.95,1.39-1.36,3.08-2.04,5.08-2.04s3.71.69,5.1,2.06c1.38,1.37,2.07,3.05,2.07,5.05s-.69,3.7-2.08,5.06c-1.4,1.35-3.11,2.03-5.15,2.03s-3.7-.69-5.06-2.07c-1.36-1.36-2.04-3.07-2.04-5.13ZM113.32,32.88c0,1.34.36,2.41,1.08,3.19.74.79,1.71,1.19,2.91,1.19s2.18-.39,2.91-1.17,1.09-1.83,1.09-3.13-.36-2.35-1.09-3.13c-.74-.79-1.71-1.19-2.91-1.19s-2.15.4-2.88,1.19c-.74.79-1.1,1.81-1.1,3.06Z"/>
            <path class="cls-3" d="M131.13,29.1v10.54h-3.1v-10.54h-1.32v-2.9h1.32v-4.93h3.1v4.93h2.41v2.9h-2.41Z"/>
            <path class="cls-3" d="M135.65,26.21h3.1v1.2c.57-.6,1.08-1.01,1.52-1.23.45-.23.98-.35,1.6-.35.82,0,1.67.27,2.57.8l-1.42,2.84c-.59-.42-1.16-.63-1.72-.63-1.69,0-2.54,1.28-2.54,3.84v6.97h-3.1v-13.44Z"/>
            <path class="cls-3" d="M145.34,32.83c0-1.94.69-3.59,2.08-4.95,1.39-1.36,3.08-2.04,5.08-2.04s3.71.69,5.1,2.06c1.38,1.37,2.07,3.05,2.07,5.05s-.69,3.7-2.08,5.06c-1.4,1.35-3.11,2.03-5.15,2.03s-3.7-.69-5.06-2.07c-1.36-1.36-2.04-3.07-2.04-5.13ZM148.51,32.88c0,1.34.36,2.41,1.08,3.19.74.79,1.71,1.19,2.91,1.19s2.18-.39,2.91-1.17,1.09-1.83,1.09-3.13-.36-2.35-1.09-3.13c-.74-.79-1.71-1.19-2.91-1.19s-2.15.4-2.88,1.19c-.74.79-1.1,1.81-1.1,3.06Z"/>
            <path class="cls-3" d="M170.76,28.5l-2.57,1.37c-.4-.83-.91-1.24-1.5-1.24-.29,0-.53.09-.73.28s-.3.43-.3.72c0,.52.6,1.03,1.79,1.53,1.65.71,2.75,1.36,3.32,1.96.57.6.86,1.4.86,2.41,0,1.3-.48,2.38-1.44,3.26-.93.83-2.05,1.24-3.37,1.24-2.25,0-3.85-1.1-4.79-3.3l2.65-1.23c.37.64.65,1.05.84,1.23.38.35.83.52,1.35.52,1.05,0,1.57-.48,1.57-1.43,0-.55-.4-1.07-1.21-1.55-.31-.16-.63-.31-.94-.46-.31-.15-.63-.3-.95-.46-.9-.44-1.54-.88-1.9-1.32-.47-.56-.7-1.28-.7-2.17,0-1.17.4-2.13,1.2-2.9.82-.76,1.81-1.15,2.98-1.15,1.72,0,3,.89,3.84,2.66Z"/>
          </g>
        </g>
      </g>
    </g>
  </g>
</svg>