<?xml version="1.0" encoding="UTF-8"?>
<svg xmlns="http://www.w3.org/2000/svg" viewBox="0 0 231.39 70.17">
  <defs>
    <style>
      .cls-1 {
        isolation: isolate;
      }

      .cls-2 {
        fill: #020202;
      }

      .cls-3 {
        fill: #fff;
      }

      .cls-4 {
        fill: #99bbce;
        mix-blend-mode: multiply;
      }
    </style>
  </defs>
  <g class="cls-1">
    <g id="Capa_2" data-name="Capa 2">
      <g id="Home">
        <g>
          <polygon class="cls-4" points="231.39 70.17 6.98 70.17 0 63.18 224.41 0 231.39 6.98 231.39 70.17"/>
          <rect class="cls-2" width="224.41" height="63.18"/>
          <g>
            <path class="cls-3" d="M57.8,30.99v8.65h-3.21v-21.3h3.64c1.78,0,3.13.12,4.04.37.92.25,1.73.72,2.43,1.41,1.22,1.2,1.83,2.7,1.83,4.52,0,1.95-.65,3.5-1.96,4.64-1.31,1.14-3.07,1.71-5.28,1.71h-1.49ZM57.8,28.01h1.2c2.95,0,4.43-1.14,4.43-3.41s-1.52-3.3-4.57-3.3h-1.06v6.7Z"/>
            <path class="cls-3" d="M69.25,26.21h3.1v1.2c.57-.6,1.08-1.01,1.52-1.23.45-.23.98-.35,1.6-.35.82,0,1.67.27,2.57.8l-1.42,2.84c-.59-.42-1.16-.63-1.72-.63-1.69,0-2.54,1.28-2.54,3.84v6.97h-3.1v-13.44Z"/>
            <path class="cls-3" d="M78.93,32.83c0-1.94.69-3.59,2.08-4.95,1.39-1.36,3.08-2.04,5.08-2.04s3.71.69,5.1,2.06c1.38,1.37,2.07,3.05,2.07,5.05s-.69,3.7-2.08,5.06c-1.4,1.35-3.11,2.03-5.15,2.03s-3.7-.69-5.06-2.07c-1.36-1.36-2.04-3.07-2.04-5.13ZM82.11,32.88c0,1.34.36,2.41,1.08,3.19.74.79,1.71,1.19,2.91,1.19s2.18-.39,2.91-1.17,1.09-1.83,1.09-3.13-.36-2.35-1.09-3.13c-.74-.79-1.71-1.19-2.91-1.19s-2.15.4-2.88,1.19c-.74.79-1.1,1.81-1.1,3.06Z"/>
            <path class="cls-3" d="M106.45,16.34h3.12v23.3h-3.12v-1.41c-1.22,1.2-2.61,1.79-4.15,1.79-1.84,0-3.37-.67-4.58-2.01-1.21-1.37-1.81-3.08-1.81-5.13s.6-3.68,1.81-5.02c1.2-1.35,2.7-2.03,4.51-2.03,1.57,0,2.98.64,4.22,1.93v-11.42ZM99.09,32.88c0,1.29.34,2.34,1.03,3.15.71.82,1.6,1.23,2.68,1.23,1.15,0,2.08-.4,2.79-1.19.71-.82,1.06-1.86,1.06-3.12s-.35-2.3-1.06-3.12c-.71-.8-1.63-1.2-2.76-1.2-1.07,0-1.96.4-2.68,1.21-.71.82-1.06,1.83-1.06,3.04Z"/>
            <path class="cls-3" d="M116.6,26.21v7.71c0,2.23.88,3.34,2.64,3.34s2.63-1.11,2.63-3.34v-7.71h3.1v7.78c0,1.08-.13,2.01-.4,2.79-.26.7-.7,1.33-1.34,1.89-1.05.91-2.38,1.37-4,1.37s-2.94-.46-3.99-1.37c-.64-.56-1.1-1.19-1.37-1.89-.26-.62-.39-1.55-.39-2.79v-7.78h3.1Z"/>
            <path class="cls-3" d="M139.34,26.79v4.12c-.71-.86-1.34-1.46-1.9-1.78-.55-.33-1.2-.5-1.95-.5-1.17,0-2.14.41-2.91,1.23-.77.82-1.16,1.84-1.16,3.08s.37,2.29,1.12,3.1c.75.81,1.71,1.21,2.88,1.21.75,0,1.4-.16,1.97-.48.55-.31,1.2-.92,1.95-1.82v4.1c-1.26.65-2.52.98-3.78.98-2.08,0-3.82-.67-5.21-2.01-1.4-1.35-2.1-3.03-2.1-5.04s.71-3.7,2.12-5.08c1.42-1.38,3.15-2.07,5.21-2.07,1.32,0,2.57.32,3.75.95Z"/>
            <path class="cls-3" d="M145.55,29.1v10.54h-3.1v-10.54h-1.32v-2.9h1.32v-4.93h3.1v4.93h2.42v2.9h-2.42Z"/>
            <path class="cls-3" d="M149.64,32.83c0-1.94.69-3.59,2.08-4.95s3.08-2.04,5.08-2.04,3.71.69,5.1,2.06c1.38,1.37,2.07,3.05,2.07,5.05s-.69,3.7-2.08,5.06c-1.4,1.35-3.11,2.03-5.15,2.03s-3.7-.69-5.06-2.07c-1.36-1.36-2.04-3.07-2.04-5.13ZM152.81,32.88c0,1.34.36,2.41,1.08,3.19.74.79,1.71,1.19,2.91,1.19s2.18-.39,2.91-1.17,1.09-1.83,1.09-3.13-.36-2.35-1.09-3.13c-.74-.79-1.71-1.19-2.91-1.19s-2.15.4-2.88,1.19c-.74.79-1.1,1.81-1.1,3.06Z"/>
            <path class="cls-3" d="M175.06,28.5l-2.57,1.37c-.4-.83-.91-1.24-1.5-1.24-.29,0-.53.09-.73.28-.2.19-.3.43-.3.72,0,.52.6,1.03,1.79,1.53,1.65.71,2.75,1.36,3.33,1.96.57.6.86,1.4.86,2.41,0,1.3-.48,2.38-1.43,3.26-.93.83-2.05,1.24-3.37,1.24-2.25,0-3.85-1.1-4.79-3.3l2.65-1.23c.37.64.65,1.05.84,1.23.38.35.83.52,1.35.52,1.05,0,1.57-.48,1.57-1.43,0-.55-.41-1.07-1.21-1.55-.31-.16-.62-.31-.94-.46-.31-.15-.63-.3-.95-.46-.9-.44-1.54-.88-1.9-1.32-.47-.56-.7-1.28-.7-2.17,0-1.17.4-2.13,1.2-2.9.82-.76,1.81-1.15,2.98-1.15,1.72,0,3,.89,3.83,2.66Z"/>
          </g>
        </g>
      </g>
    </g>
  </g>
</svg>