<?xml version="1.0" encoding="UTF-8"?>
<svg id="Capa_2" data-name="Capa 2" xmlns="http://www.w3.org/2000/svg" viewBox="0 0 476.57 53.72">
  <defs>
    <style>
      .cls-1 {
        fill: #0e65b7;
      }
    </style>
  </defs>
  <g id="Home">
    <g>
      <g>
        <path class="cls-1" d="M3.65,1.82c0,1.01-.82,1.82-1.82,1.82s-1.82-.82-1.82-1.82S.82,0,1.82,0s1.82.82,1.82,1.82Z"/>
        <circle class="cls-1" cx="14.34" cy="1.82" r="1.82"/>
        <path class="cls-1" d="M28.68,1.82c0,1.01-.82,1.82-1.82,1.82s-1.82-.82-1.82-1.82.82-1.82,1.82-1.82,1.82.82,1.82,1.82Z"/>
        <circle class="cls-1" cx="39.38" cy="1.82" r="1.82"/>
        <circle class="cls-1" cx="51.9" cy="1.82" r="1.82"/>
        <path class="cls-1" d="M3.65,14.34c0,1.01-.82,1.82-1.82,1.82s-1.82-.82-1.82-1.82.82-1.82,1.82-1.82,1.82.82,1.82,1.82Z"/>
        <path class="cls-1" d="M16.16,14.34c0,1.01-.82,1.82-1.82,1.82s-1.82-.82-1.82-1.82.82-1.82,1.82-1.82,1.82.82,1.82,1.82Z"/>
        <path class="cls-1" d="M28.68,14.34c0,1.01-.82,1.82-1.82,1.82s-1.82-.82-1.82-1.82.82-1.82,1.82-1.82,1.82.82,1.82,1.82Z"/>
        <path class="cls-1" d="M41.2,14.34c0,1.01-.82,1.82-1.82,1.82s-1.82-.82-1.82-1.82.82-1.82,1.82-1.82,1.82.82,1.82,1.82Z"/>
        <path class="cls-1" d="M53.72,14.34c0,1.01-.82,1.82-1.82,1.82s-1.82-.82-1.82-1.82.82-1.82,1.82-1.82,1.82.82,1.82,1.82Z"/>
        <path class="cls-1" d="M3.65,26.86c0,1.01-.82,1.82-1.82,1.82s-1.82-.82-1.82-1.82.82-1.82,1.82-1.82,1.82.82,1.82,1.82Z"/>
        <path class="cls-1" d="M16.16,26.86c0,1.01-.82,1.82-1.82,1.82s-1.82-.82-1.82-1.82.82-1.82,1.82-1.82,1.82.82,1.82,1.82Z"/>
        <path class="cls-1" d="M28.68,26.86c0,1.01-.82,1.82-1.82,1.82s-1.82-.82-1.82-1.82.82-1.82,1.82-1.82,1.82.82,1.82,1.82Z"/>
        <path class="cls-1" d="M41.2,26.86c0,1.01-.82,1.82-1.82,1.82s-1.82-.82-1.82-1.82.82-1.82,1.82-1.82,1.82.82,1.82,1.82Z"/>
        <path class="cls-1" d="M53.72,26.86c0,1.01-.82,1.82-1.82,1.82s-1.82-.82-1.82-1.82.82-1.82,1.82-1.82,1.82.82,1.82,1.82Z"/>
        <path class="cls-1" d="M3.65,39.38c0,1.01-.82,1.82-1.82,1.82s-1.82-.82-1.82-1.82.82-1.82,1.82-1.82,1.82.82,1.82,1.82Z"/>
        <path class="cls-1" d="M16.16,39.38c0,1.01-.82,1.82-1.82,1.82s-1.82-.82-1.82-1.82.82-1.82,1.82-1.82,1.82.82,1.82,1.82Z"/>
        <path class="cls-1" d="M28.68,39.38c0,1.01-.82,1.82-1.82,1.82s-1.82-.82-1.82-1.82.82-1.82,1.82-1.82,1.82.82,1.82,1.82Z"/>
        <path class="cls-1" d="M41.2,39.38c0,1.01-.82,1.82-1.82,1.82s-1.82-.82-1.82-1.82.82-1.82,1.82-1.82,1.82.82,1.82,1.82Z"/>
        <path class="cls-1" d="M53.72,39.38c0,1.01-.82,1.82-1.82,1.82s-1.82-.82-1.82-1.82.82-1.82,1.82-1.82,1.82.82,1.82,1.82Z"/>
        <path class="cls-1" d="M3.65,51.9c0,1.01-.82,1.82-1.82,1.82s-1.82-.82-1.82-1.82.82-1.82,1.82-1.82,1.82.82,1.82,1.82Z"/>
        <circle class="cls-1" cx="14.34" cy="51.9" r="1.82"/>
        <path class="cls-1" d="M28.68,51.9c0,1.01-.82,1.82-1.82,1.82s-1.82-.82-1.82-1.82.82-1.82,1.82-1.82,1.82.82,1.82,1.82Z"/>
        <circle class="cls-1" cx="39.38" cy="51.9" r="1.82"/>
        <circle class="cls-1" cx="51.9" cy="51.9" r="1.82"/>
      </g>
      <g>
        <path class="cls-1" d="M63.85,1.82c0,1.01-.82,1.82-1.82,1.82s-1.82-.82-1.82-1.82.82-1.82,1.82-1.82,1.82.82,1.82,1.82Z"/>
        <circle class="cls-1" cx="74.55" cy="1.82" r="1.82"/>
        <path class="cls-1" d="M88.89,1.82c0,1.01-.82,1.82-1.82,1.82s-1.82-.82-1.82-1.82.82-1.82,1.82-1.82,1.82.82,1.82,1.82Z"/>
        <circle class="cls-1" cx="99.58" cy="1.82" r="1.82"/>
        <circle class="cls-1" cx="112.1" cy="1.82" r="1.82"/>
        <path class="cls-1" d="M63.85,14.34c0,1.01-.82,1.82-1.82,1.82s-1.82-.82-1.82-1.82.82-1.82,1.82-1.82,1.82.82,1.82,1.82Z"/>
        <path class="cls-1" d="M76.37,14.34c0,1.01-.82,1.82-1.82,1.82s-1.82-.82-1.82-1.82.82-1.82,1.82-1.82,1.82.82,1.82,1.82Z"/>
        <path class="cls-1" d="M88.89,14.34c0,1.01-.82,1.82-1.82,1.82s-1.82-.82-1.82-1.82.82-1.82,1.82-1.82,1.82.82,1.82,1.82Z"/>
        <path class="cls-1" d="M101.41,14.34c0,1.01-.82,1.82-1.82,1.82s-1.82-.82-1.82-1.82.82-1.82,1.82-1.82,1.82.82,1.82,1.82Z"/>
        <path class="cls-1" d="M113.93,14.34c0,1.01-.82,1.82-1.82,1.82s-1.82-.82-1.82-1.82.82-1.82,1.82-1.82,1.82.82,1.82,1.82Z"/>
        <path class="cls-1" d="M63.85,26.86c0,1.01-.82,1.82-1.82,1.82s-1.82-.82-1.82-1.82.82-1.82,1.82-1.82,1.82.82,1.82,1.82Z"/>
        <path class="cls-1" d="M76.37,26.86c0,1.01-.82,1.82-1.82,1.82s-1.82-.82-1.82-1.82.82-1.82,1.82-1.82,1.82.82,1.82,1.82Z"/>
        <path class="cls-1" d="M88.89,26.86c0,1.01-.82,1.82-1.82,1.82s-1.82-.82-1.82-1.82.82-1.82,1.82-1.82,1.82.82,1.82,1.82Z"/>
        <path class="cls-1" d="M101.41,26.86c0,1.01-.82,1.82-1.82,1.82s-1.82-.82-1.82-1.82.82-1.82,1.82-1.82,1.82.82,1.82,1.82Z"/>
        <path class="cls-1" d="M113.93,26.86c0,1.01-.82,1.82-1.82,1.82s-1.82-.82-1.82-1.82.82-1.82,1.82-1.82,1.82.82,1.82,1.82Z"/>
        <path class="cls-1" d="M63.85,39.38c0,1.01-.82,1.82-1.82,1.82s-1.82-.82-1.82-1.82.82-1.82,1.82-1.82,1.82.82,1.82,1.82Z"/>
        <path class="cls-1" d="M76.37,39.38c0,1.01-.82,1.82-1.82,1.82s-1.82-.82-1.82-1.82.82-1.82,1.82-1.82,1.82.82,1.82,1.82Z"/>
        <path class="cls-1" d="M88.89,39.38c0,1.01-.82,1.82-1.82,1.82s-1.82-.82-1.82-1.82.82-1.82,1.82-1.82,1.82.82,1.82,1.82Z"/>
        <path class="cls-1" d="M101.41,39.38c0,1.01-.82,1.82-1.82,1.82s-1.82-.82-1.82-1.82.82-1.82,1.82-1.82,1.82.82,1.82,1.82Z"/>
        <path class="cls-1" d="M113.93,39.38c0,1.01-.82,1.82-1.82,1.82s-1.82-.82-1.82-1.82.82-1.82,1.82-1.82,1.82.82,1.82,1.82Z"/>
        <path class="cls-1" d="M63.85,51.9c0,1.01-.82,1.82-1.82,1.82s-1.82-.82-1.82-1.82.82-1.82,1.82-1.82,1.82.82,1.82,1.82Z"/>
        <circle class="cls-1" cx="74.55" cy="51.9" r="1.82"/>
        <path class="cls-1" d="M88.89,51.9c0,1.01-.82,1.82-1.82,1.82s-1.82-.82-1.82-1.82.82-1.82,1.82-1.82,1.82.82,1.82,1.82Z"/>
        <circle class="cls-1" cx="99.58" cy="51.9" r="1.82"/>
        <circle class="cls-1" cx="112.1" cy="51.9" r="1.82"/>
      </g>
      <g>
        <path class="cls-1" d="M124.11,1.82c0,1.01-.82,1.82-1.82,1.82s-1.82-.82-1.82-1.82.82-1.82,1.82-1.82,1.82.82,1.82,1.82Z"/>
        <circle class="cls-1" cx="134.8" cy="1.82" r="1.82"/>
        <path class="cls-1" d="M149.14,1.82c0,1.01-.82,1.82-1.82,1.82s-1.82-.82-1.82-1.82.82-1.82,1.82-1.82,1.82.82,1.82,1.82Z"/>
        <circle class="cls-1" cx="159.84" cy="1.82" r="1.82"/>
        <circle class="cls-1" cx="172.36" cy="1.82" r="1.82"/>
        <path class="cls-1" d="M124.11,14.34c0,1.01-.82,1.82-1.82,1.82s-1.82-.82-1.82-1.82.82-1.82,1.82-1.82,1.82.82,1.82,1.82Z"/>
        <path class="cls-1" d="M136.63,14.34c0,1.01-.82,1.82-1.82,1.82s-1.82-.82-1.82-1.82.82-1.82,1.82-1.82,1.82.82,1.82,1.82Z"/>
        <path class="cls-1" d="M149.14,14.34c0,1.01-.82,1.82-1.82,1.82s-1.82-.82-1.82-1.82.82-1.82,1.82-1.82,1.82.82,1.82,1.82Z"/>
        <path class="cls-1" d="M161.66,14.34c0,1.01-.82,1.82-1.82,1.82s-1.82-.82-1.82-1.82.82-1.82,1.82-1.82,1.82.82,1.82,1.82Z"/>
        <path class="cls-1" d="M174.18,14.34c0,1.01-.82,1.82-1.82,1.82s-1.82-.82-1.82-1.82.82-1.82,1.82-1.82,1.82.82,1.82,1.82Z"/>
        <path class="cls-1" d="M124.11,26.86c0,1.01-.82,1.82-1.82,1.82s-1.82-.82-1.82-1.82.82-1.82,1.82-1.82,1.82.82,1.82,1.82Z"/>
        <path class="cls-1" d="M136.63,26.86c0,1.01-.82,1.82-1.82,1.82s-1.82-.82-1.82-1.82.82-1.82,1.82-1.82,1.82.82,1.82,1.82Z"/>
        <path class="cls-1" d="M149.14,26.86c0,1.01-.82,1.82-1.82,1.82s-1.82-.82-1.82-1.82.82-1.82,1.82-1.82,1.82.82,1.82,1.82Z"/>
        <path class="cls-1" d="M161.66,26.86c0,1.01-.82,1.82-1.82,1.82s-1.82-.82-1.82-1.82.82-1.82,1.82-1.82,1.82.82,1.82,1.82Z"/>
        <path class="cls-1" d="M174.18,26.86c0,1.01-.82,1.82-1.82,1.82s-1.82-.82-1.82-1.82.82-1.82,1.82-1.82,1.82.82,1.82,1.82Z"/>
        <path class="cls-1" d="M124.11,39.38c0,1.01-.82,1.82-1.82,1.82s-1.82-.82-1.82-1.82.82-1.82,1.82-1.82,1.82.82,1.82,1.82Z"/>
        <path class="cls-1" d="M136.63,39.38c0,1.01-.82,1.82-1.82,1.82s-1.82-.82-1.82-1.82.82-1.82,1.82-1.82,1.82.82,1.82,1.82Z"/>
        <path class="cls-1" d="M149.14,39.38c0,1.01-.82,1.82-1.82,1.82s-1.82-.82-1.82-1.82.82-1.82,1.82-1.82,1.82.82,1.82,1.82Z"/>
        <path class="cls-1" d="M161.66,39.38c0,1.01-.82,1.82-1.82,1.82s-1.82-.82-1.82-1.82.82-1.82,1.82-1.82,1.82.82,1.82,1.82Z"/>
        <path class="cls-1" d="M174.18,39.38c0,1.01-.82,1.82-1.82,1.82s-1.82-.82-1.82-1.82.82-1.82,1.82-1.82,1.82.82,1.82,1.82Z"/>
        <path class="cls-1" d="M124.11,51.9c0,1.01-.82,1.82-1.82,1.82s-1.82-.82-1.82-1.82.82-1.82,1.82-1.82,1.82.82,1.82,1.82Z"/>
        <circle class="cls-1" cx="134.8" cy="51.9" r="1.82"/>
        <path class="cls-1" d="M149.14,51.9c0,1.01-.82,1.82-1.82,1.82s-1.82-.82-1.82-1.82.82-1.82,1.82-1.82,1.82.82,1.82,1.82Z"/>
        <circle class="cls-1" cx="159.84" cy="51.9" r="1.82"/>
        <circle class="cls-1" cx="172.36" cy="51.9" r="1.82"/>
      </g>
      <g>
        <path class="cls-1" d="M184.31,1.82c0,1.01-.82,1.82-1.82,1.82s-1.82-.82-1.82-1.82.82-1.82,1.82-1.82,1.82.82,1.82,1.82Z"/>
        <circle class="cls-1" cx="195.01" cy="1.82" r="1.82"/>
        <path class="cls-1" d="M209.35,1.82c0,1.01-.82,1.82-1.82,1.82s-1.82-.82-1.82-1.82.82-1.82,1.82-1.82,1.82.82,1.82,1.82Z"/>
        <circle class="cls-1" cx="220.05" cy="1.82" r="1.82"/>
        <circle class="cls-1" cx="232.56" cy="1.82" r="1.82"/>
        <path class="cls-1" d="M184.31,14.34c0,1.01-.82,1.82-1.82,1.82s-1.82-.82-1.82-1.82.82-1.82,1.82-1.82,1.82.82,1.82,1.82Z"/>
        <path class="cls-1" d="M196.83,14.34c0,1.01-.82,1.82-1.82,1.82s-1.82-.82-1.82-1.82.82-1.82,1.82-1.82,1.82.82,1.82,1.82Z"/>
        <path class="cls-1" d="M209.35,14.34c0,1.01-.82,1.82-1.82,1.82s-1.82-.82-1.82-1.82.82-1.82,1.82-1.82,1.82.82,1.82,1.82Z"/>
        <path class="cls-1" d="M221.87,14.34c0,1.01-.82,1.82-1.82,1.82s-1.82-.82-1.82-1.82.82-1.82,1.82-1.82,1.82.82,1.82,1.82Z"/>
        <path class="cls-1" d="M234.39,14.34c0,1.01-.82,1.82-1.82,1.82s-1.82-.82-1.82-1.82.82-1.82,1.82-1.82,1.82.82,1.82,1.82Z"/>
        <path class="cls-1" d="M184.31,26.86c0,1.01-.82,1.82-1.82,1.82s-1.82-.82-1.82-1.82.82-1.82,1.82-1.82,1.82.82,1.82,1.82Z"/>
        <path class="cls-1" d="M196.83,26.86c0,1.01-.82,1.82-1.82,1.82s-1.82-.82-1.82-1.82.82-1.82,1.82-1.82,1.82.82,1.82,1.82Z"/>
        <path class="cls-1" d="M209.35,26.86c0,1.01-.82,1.82-1.82,1.82s-1.82-.82-1.82-1.82.82-1.82,1.82-1.82,1.82.82,1.82,1.82Z"/>
        <path class="cls-1" d="M221.87,26.86c0,1.01-.82,1.82-1.82,1.82s-1.82-.82-1.82-1.82.82-1.82,1.82-1.82,1.82.82,1.82,1.82Z"/>
        <path class="cls-1" d="M234.39,26.86c0,1.01-.82,1.82-1.82,1.82s-1.82-.82-1.82-1.82.82-1.82,1.82-1.82,1.82.82,1.82,1.82Z"/>
        <path class="cls-1" d="M184.31,39.38c0,1.01-.82,1.82-1.82,1.82s-1.82-.82-1.82-1.82.82-1.82,1.82-1.82,1.82.82,1.82,1.82Z"/>
        <path class="cls-1" d="M196.83,39.38c0,1.01-.82,1.82-1.82,1.82s-1.82-.82-1.82-1.82.82-1.82,1.82-1.82,1.82.82,1.82,1.82Z"/>
        <path class="cls-1" d="M209.35,39.38c0,1.01-.82,1.82-1.82,1.82s-1.82-.82-1.82-1.82.82-1.82,1.82-1.82,1.82.82,1.82,1.82Z"/>
        <path class="cls-1" d="M221.87,39.38c0,1.01-.82,1.82-1.82,1.82s-1.82-.82-1.82-1.82.82-1.82,1.82-1.82,1.82.82,1.82,1.82Z"/>
        <path class="cls-1" d="M234.39,39.38c0,1.01-.82,1.82-1.82,1.82s-1.82-.82-1.82-1.82.82-1.82,1.82-1.82,1.82.82,1.82,1.82Z"/>
        <path class="cls-1" d="M184.31,51.9c0,1.01-.82,1.82-1.82,1.82s-1.82-.82-1.82-1.82.82-1.82,1.82-1.82,1.82.82,1.82,1.82Z"/>
        <circle class="cls-1" cx="195.01" cy="51.9" r="1.82"/>
        <path class="cls-1" d="M209.35,51.9c0,1.01-.82,1.82-1.82,1.82s-1.82-.82-1.82-1.82.82-1.82,1.82-1.82,1.82.82,1.82,1.82Z"/>
        <circle class="cls-1" cx="220.05" cy="51.9" r="1.82"/>
        <circle class="cls-1" cx="232.56" cy="51.9" r="1.82"/>
      </g>
      <g>
        <path class="cls-1" d="M245.83,1.82c0,1.01-.82,1.82-1.82,1.82s-1.82-.82-1.82-1.82.82-1.82,1.82-1.82,1.82.82,1.82,1.82Z"/>
        <circle class="cls-1" cx="256.53" cy="1.82" r="1.82"/>
        <path class="cls-1" d="M270.87,1.82c0,1.01-.82,1.82-1.82,1.82s-1.82-.82-1.82-1.82.82-1.82,1.82-1.82,1.82.82,1.82,1.82Z"/>
        <circle class="cls-1" cx="281.56" cy="1.82" r="1.82"/>
        <circle class="cls-1" cx="294.08" cy="1.82" r="1.82"/>
        <path class="cls-1" d="M245.83,14.34c0,1.01-.82,1.82-1.82,1.82s-1.82-.82-1.82-1.82.82-1.82,1.82-1.82,1.82.82,1.82,1.82Z"/>
        <path class="cls-1" d="M258.35,14.34c0,1.01-.82,1.82-1.82,1.82s-1.82-.82-1.82-1.82.82-1.82,1.82-1.82,1.82.82,1.82,1.82Z"/>
        <path class="cls-1" d="M270.87,14.34c0,1.01-.82,1.82-1.82,1.82s-1.82-.82-1.82-1.82.82-1.82,1.82-1.82,1.82.82,1.82,1.82Z"/>
        <path class="cls-1" d="M283.39,14.34c0,1.01-.82,1.82-1.82,1.82s-1.82-.82-1.82-1.82.82-1.82,1.82-1.82,1.82.82,1.82,1.82Z"/>
        <path class="cls-1" d="M295.91,14.34c0,1.01-.82,1.82-1.82,1.82s-1.82-.82-1.82-1.82.82-1.82,1.82-1.82,1.82.82,1.82,1.82Z"/>
        <path class="cls-1" d="M245.83,26.86c0,1.01-.82,1.82-1.82,1.82s-1.82-.82-1.82-1.82.82-1.82,1.82-1.82,1.82.82,1.82,1.82Z"/>
        <path class="cls-1" d="M258.35,26.86c0,1.01-.82,1.82-1.82,1.82s-1.82-.82-1.82-1.82.82-1.82,1.82-1.82,1.82.82,1.82,1.82Z"/>
        <path class="cls-1" d="M270.87,26.86c0,1.01-.82,1.82-1.82,1.82s-1.82-.82-1.82-1.82.82-1.82,1.82-1.82,1.82.82,1.82,1.82Z"/>
        <path class="cls-1" d="M283.39,26.86c0,1.01-.82,1.82-1.82,1.82s-1.82-.82-1.82-1.82.82-1.82,1.82-1.82,1.82.82,1.82,1.82Z"/>
        <path class="cls-1" d="M295.91,26.86c0,1.01-.82,1.82-1.82,1.82s-1.82-.82-1.82-1.82.82-1.82,1.82-1.82,1.82.82,1.82,1.82Z"/>
        <path class="cls-1" d="M245.83,39.38c0,1.01-.82,1.82-1.82,1.82s-1.82-.82-1.82-1.82.82-1.82,1.82-1.82,1.82.82,1.82,1.82Z"/>
        <path class="cls-1" d="M258.35,39.38c0,1.01-.82,1.82-1.82,1.82s-1.82-.82-1.82-1.82.82-1.82,1.82-1.82,1.82.82,1.82,1.82Z"/>
        <path class="cls-1" d="M270.87,39.38c0,1.01-.82,1.82-1.82,1.82s-1.82-.82-1.82-1.82.82-1.82,1.82-1.82,1.82.82,1.82,1.82Z"/>
        <path class="cls-1" d="M283.39,39.38c0,1.01-.82,1.82-1.82,1.82s-1.82-.82-1.82-1.82.82-1.82,1.82-1.82,1.82.82,1.82,1.82Z"/>
        <path class="cls-1" d="M295.91,39.38c0,1.01-.82,1.82-1.82,1.82s-1.82-.82-1.82-1.82.82-1.82,1.82-1.82,1.82.82,1.82,1.82Z"/>
        <path class="cls-1" d="M245.83,51.9c0,1.01-.82,1.82-1.82,1.82s-1.82-.82-1.82-1.82.82-1.82,1.82-1.82,1.82.82,1.82,1.82Z"/>
        <circle class="cls-1" cx="256.53" cy="51.9" r="1.82"/>
        <path class="cls-1" d="M270.87,51.9c0,1.01-.82,1.82-1.82,1.82s-1.82-.82-1.82-1.82.82-1.82,1.82-1.82,1.82.82,1.82,1.82Z"/>
        <circle class="cls-1" cx="281.56" cy="51.9" r="1.82"/>
        <circle class="cls-1" cx="294.08" cy="51.9" r="1.82"/>
      </g>
      <g>
        <path class="cls-1" d="M306.04,1.82c0,1.01-.82,1.82-1.82,1.82s-1.82-.82-1.82-1.82.82-1.82,1.82-1.82,1.82.82,1.82,1.82Z"/>
        <circle class="cls-1" cx="316.73" cy="1.82" r="1.82"/>
        <path class="cls-1" d="M331.07,1.82c0,1.01-.82,1.82-1.82,1.82s-1.82-.82-1.82-1.82.82-1.82,1.82-1.82,1.82.82,1.82,1.82Z"/>
        <circle class="cls-1" cx="341.77" cy="1.82" r="1.82"/>
        <circle class="cls-1" cx="354.29" cy="1.82" r="1.82"/>
        <path class="cls-1" d="M306.04,14.34c0,1.01-.82,1.82-1.82,1.82s-1.82-.82-1.82-1.82.82-1.82,1.82-1.82,1.82.82,1.82,1.82Z"/>
        <path class="cls-1" d="M318.55,14.34c0,1.01-.82,1.82-1.82,1.82s-1.82-.82-1.82-1.82.82-1.82,1.82-1.82,1.82.82,1.82,1.82Z"/>
        <path class="cls-1" d="M331.07,14.34c0,1.01-.82,1.82-1.82,1.82s-1.82-.82-1.82-1.82.82-1.82,1.82-1.82,1.82.82,1.82,1.82Z"/>
        <path class="cls-1" d="M343.59,14.34c0,1.01-.82,1.82-1.82,1.82s-1.82-.82-1.82-1.82.82-1.82,1.82-1.82,1.82.82,1.82,1.82Z"/>
        <path class="cls-1" d="M356.11,14.34c0,1.01-.82,1.82-1.82,1.82s-1.82-.82-1.82-1.82.82-1.82,1.82-1.82,1.82.82,1.82,1.82Z"/>
        <path class="cls-1" d="M306.04,26.86c0,1.01-.82,1.82-1.82,1.82s-1.82-.82-1.82-1.82.82-1.82,1.82-1.82,1.82.82,1.82,1.82Z"/>
        <path class="cls-1" d="M318.55,26.86c0,1.01-.82,1.82-1.82,1.82s-1.82-.82-1.82-1.82.82-1.82,1.82-1.82,1.82.82,1.82,1.82Z"/>
        <path class="cls-1" d="M331.07,26.86c0,1.01-.82,1.82-1.82,1.82s-1.82-.82-1.82-1.82.82-1.82,1.82-1.82,1.82.82,1.82,1.82Z"/>
        <path class="cls-1" d="M343.59,26.86c0,1.01-.82,1.82-1.82,1.82s-1.82-.82-1.82-1.82.82-1.82,1.82-1.82,1.82.82,1.82,1.82Z"/>
        <path class="cls-1" d="M356.11,26.86c0,1.01-.82,1.82-1.82,1.82s-1.82-.82-1.82-1.82.82-1.82,1.82-1.82,1.82.82,1.82,1.82Z"/>
        <path class="cls-1" d="M306.04,39.38c0,1.01-.82,1.82-1.82,1.82s-1.82-.82-1.82-1.82.82-1.82,1.82-1.82,1.82.82,1.82,1.82Z"/>
        <path class="cls-1" d="M318.55,39.38c0,1.01-.82,1.82-1.82,1.82s-1.82-.82-1.82-1.82.82-1.82,1.82-1.82,1.82.82,1.82,1.82Z"/>
        <path class="cls-1" d="M331.07,39.38c0,1.01-.82,1.82-1.82,1.82s-1.82-.82-1.82-1.82.82-1.82,1.82-1.82,1.82.82,1.82,1.82Z"/>
        <path class="cls-1" d="M343.59,39.38c0,1.01-.82,1.82-1.82,1.82s-1.82-.82-1.82-1.82.82-1.82,1.82-1.82,1.82.82,1.82,1.82Z"/>
        <path class="cls-1" d="M356.11,39.38c0,1.01-.82,1.82-1.82,1.82s-1.82-.82-1.82-1.82.82-1.82,1.82-1.82,1.82.82,1.82,1.82Z"/>
        <path class="cls-1" d="M306.04,51.9c0,1.01-.82,1.82-1.82,1.82s-1.82-.82-1.82-1.82.82-1.82,1.82-1.82,1.82.82,1.82,1.82Z"/>
        <circle class="cls-1" cx="316.73" cy="51.9" r="1.82"/>
        <path class="cls-1" d="M331.07,51.9c0,1.01-.82,1.82-1.82,1.82s-1.82-.82-1.82-1.82.82-1.82,1.82-1.82,1.82.82,1.82,1.82Z"/>
        <circle class="cls-1" cx="341.77" cy="51.9" r="1.82"/>
        <circle class="cls-1" cx="354.29" cy="51.9" r="1.82"/>
      </g>
      <g>
        <path class="cls-1" d="M366.29,1.82c0,1.01-.82,1.82-1.82,1.82s-1.82-.82-1.82-1.82.82-1.82,1.82-1.82,1.82.82,1.82,1.82Z"/>
        <circle class="cls-1" cx="376.99" cy="1.82" r="1.82"/>
        <path class="cls-1" d="M391.33,1.82c0,1.01-.82,1.82-1.82,1.82s-1.82-.82-1.82-1.82.82-1.82,1.82-1.82,1.82.82,1.82,1.82Z"/>
        <circle class="cls-1" cx="402.03" cy="1.82" r="1.82"/>
        <circle class="cls-1" cx="414.55" cy="1.82" r="1.82"/>
        <path class="cls-1" d="M366.29,14.34c0,1.01-.82,1.82-1.82,1.82s-1.82-.82-1.82-1.82.82-1.82,1.82-1.82,1.82.82,1.82,1.82Z"/>
        <path class="cls-1" d="M378.81,14.34c0,1.01-.82,1.82-1.82,1.82s-1.82-.82-1.82-1.82.82-1.82,1.82-1.82,1.82.82,1.82,1.82Z"/>
        <path class="cls-1" d="M391.33,14.34c0,1.01-.82,1.82-1.82,1.82s-1.82-.82-1.82-1.82.82-1.82,1.82-1.82,1.82.82,1.82,1.82Z"/>
        <path class="cls-1" d="M403.85,14.34c0,1.01-.82,1.82-1.82,1.82s-1.82-.82-1.82-1.82.82-1.82,1.82-1.82,1.82.82,1.82,1.82Z"/>
        <path class="cls-1" d="M416.37,14.34c0,1.01-.82,1.82-1.82,1.82s-1.82-.82-1.82-1.82.82-1.82,1.82-1.82,1.82.82,1.82,1.82Z"/>
        <path class="cls-1" d="M366.29,26.86c0,1.01-.82,1.82-1.82,1.82s-1.82-.82-1.82-1.82.82-1.82,1.82-1.82,1.82.82,1.82,1.82Z"/>
        <path class="cls-1" d="M378.81,26.86c0,1.01-.82,1.82-1.82,1.82s-1.82-.82-1.82-1.82.82-1.82,1.82-1.82,1.82.82,1.82,1.82Z"/>
        <path class="cls-1" d="M391.33,26.86c0,1.01-.82,1.82-1.82,1.82s-1.82-.82-1.82-1.82.82-1.82,1.82-1.82,1.82.82,1.82,1.82Z"/>
        <path class="cls-1" d="M403.85,26.86c0,1.01-.82,1.82-1.82,1.82s-1.82-.82-1.82-1.82.82-1.82,1.82-1.82,1.82.82,1.82,1.82Z"/>
        <path class="cls-1" d="M416.37,26.86c0,1.01-.82,1.82-1.82,1.82s-1.82-.82-1.82-1.82.82-1.82,1.82-1.82,1.82.82,1.82,1.82Z"/>
        <path class="cls-1" d="M366.29,39.38c0,1.01-.82,1.82-1.82,1.82s-1.82-.82-1.82-1.82.82-1.82,1.82-1.82,1.82.82,1.82,1.82Z"/>
        <path class="cls-1" d="M378.81,39.38c0,1.01-.82,1.82-1.82,1.82s-1.82-.82-1.82-1.82.82-1.82,1.82-1.82,1.82.82,1.82,1.82Z"/>
        <path class="cls-1" d="M391.33,39.38c0,1.01-.82,1.82-1.82,1.82s-1.82-.82-1.82-1.82.82-1.82,1.82-1.82,1.82.82,1.82,1.82Z"/>
        <path class="cls-1" d="M403.85,39.38c0,1.01-.82,1.82-1.82,1.82s-1.82-.82-1.82-1.82.82-1.82,1.82-1.82,1.82.82,1.82,1.82Z"/>
        <path class="cls-1" d="M416.37,39.38c0,1.01-.82,1.82-1.82,1.82s-1.82-.82-1.82-1.82.82-1.82,1.82-1.82,1.82.82,1.82,1.82Z"/>
        <path class="cls-1" d="M366.29,51.9c0,1.01-.82,1.82-1.82,1.82s-1.82-.82-1.82-1.82.82-1.82,1.82-1.82,1.82.82,1.82,1.82Z"/>
        <circle class="cls-1" cx="376.99" cy="51.9" r="1.82"/>
        <path class="cls-1" d="M391.33,51.9c0,1.01-.82,1.82-1.82,1.82s-1.82-.82-1.82-1.82.82-1.82,1.82-1.82,1.82.82,1.82,1.82Z"/>
        <circle class="cls-1" cx="402.03" cy="51.9" r="1.82"/>
        <circle class="cls-1" cx="414.55" cy="51.9" r="1.82"/>
      </g>
      <g>
        <path class="cls-1" d="M426.5,1.82c0,1.01-.82,1.82-1.82,1.82s-1.82-.82-1.82-1.82.82-1.82,1.82-1.82,1.82.82,1.82,1.82Z"/>
        <circle class="cls-1" cx="437.19" cy="1.82" r="1.82"/>
        <path class="cls-1" d="M451.54,1.82c0,1.01-.82,1.82-1.82,1.82s-1.82-.82-1.82-1.82.82-1.82,1.82-1.82,1.82.82,1.82,1.82Z"/>
        <circle class="cls-1" cx="462.23" cy="1.82" r="1.82"/>
        <circle class="cls-1" cx="474.75" cy="1.82" r="1.82"/>
        <path class="cls-1" d="M426.5,14.34c0,1.01-.82,1.82-1.82,1.82s-1.82-.82-1.82-1.82.82-1.82,1.82-1.82,1.82.82,1.82,1.82Z"/>
        <path class="cls-1" d="M439.02,14.34c0,1.01-.82,1.82-1.82,1.82s-1.82-.82-1.82-1.82.82-1.82,1.82-1.82,1.82.82,1.82,1.82Z"/>
        <path class="cls-1" d="M451.54,14.34c0,1.01-.82,1.82-1.82,1.82s-1.82-.82-1.82-1.82.82-1.82,1.82-1.82,1.82.82,1.82,1.82Z"/>
        <path class="cls-1" d="M464.05,14.34c0,1.01-.82,1.82-1.82,1.82s-1.82-.82-1.82-1.82.82-1.82,1.82-1.82,1.82.82,1.82,1.82Z"/>
        <path class="cls-1" d="M476.57,14.34c0,1.01-.82,1.82-1.82,1.82s-1.82-.82-1.82-1.82.82-1.82,1.82-1.82,1.82.82,1.82,1.82Z"/>
        <path class="cls-1" d="M426.5,26.86c0,1.01-.82,1.82-1.82,1.82s-1.82-.82-1.82-1.82.82-1.82,1.82-1.82,1.82.82,1.82,1.82Z"/>
        <path class="cls-1" d="M439.02,26.86c0,1.01-.82,1.82-1.82,1.82s-1.82-.82-1.82-1.82.82-1.82,1.82-1.82,1.82.82,1.82,1.82Z"/>
        <path class="cls-1" d="M451.54,26.86c0,1.01-.82,1.82-1.82,1.82s-1.82-.82-1.82-1.82.82-1.82,1.82-1.82,1.82.82,1.82,1.82Z"/>
        <path class="cls-1" d="M464.05,26.86c0,1.01-.82,1.82-1.82,1.82s-1.82-.82-1.82-1.82.82-1.82,1.82-1.82,1.82.82,1.82,1.82Z"/>
        <path class="cls-1" d="M476.57,26.86c0,1.01-.82,1.82-1.82,1.82s-1.82-.82-1.82-1.82.82-1.82,1.82-1.82,1.82.82,1.82,1.82Z"/>
        <path class="cls-1" d="M426.5,39.38c0,1.01-.82,1.82-1.82,1.82s-1.82-.82-1.82-1.82.82-1.82,1.82-1.82,1.82.82,1.82,1.82Z"/>
        <path class="cls-1" d="M439.02,39.38c0,1.01-.82,1.82-1.82,1.82s-1.82-.82-1.82-1.82.82-1.82,1.82-1.82,1.82.82,1.82,1.82Z"/>
        <path class="cls-1" d="M451.54,39.38c0,1.01-.82,1.82-1.82,1.82s-1.82-.82-1.82-1.82.82-1.82,1.82-1.82,1.82.82,1.82,1.82Z"/>
        <path class="cls-1" d="M464.05,39.38c0,1.01-.82,1.82-1.82,1.82s-1.82-.82-1.82-1.82.82-1.82,1.82-1.82,1.82.82,1.82,1.82Z"/>
        <path class="cls-1" d="M476.57,39.38c0,1.01-.82,1.82-1.82,1.82s-1.82-.82-1.82-1.82.82-1.82,1.82-1.82,1.82.82,1.82,1.82Z"/>
        <path class="cls-1" d="M426.5,51.9c0,1.01-.82,1.82-1.82,1.82s-1.82-.82-1.82-1.82.82-1.82,1.82-1.82,1.82.82,1.82,1.82Z"/>
        <circle class="cls-1" cx="437.19" cy="51.9" r="1.82"/>
        <path class="cls-1" d="M451.54,51.9c0,1.01-.82,1.82-1.82,1.82s-1.82-.82-1.82-1.82.82-1.82,1.82-1.82,1.82.82,1.82,1.82Z"/>
        <circle class="cls-1" cx="462.23" cy="51.9" r="1.82"/>
        <circle class="cls-1" cx="474.75" cy="51.9" r="1.82"/>
      </g>
    </g>
  </g>
</svg>